<svg width="20830" height="6257" viewBox="0 0 20830 6257" fill="none" xmlns="http://www.w3.org/2000/svg">
<path d="M1868.46 4203.12C10497.6 -2972.72 15797.9 953.105 18407 2322.2" stroke="#4E4E4E" stroke-opacity="0.66" stroke-width="30" stroke-linecap="round"/>
<ellipse cx="1814" cy="4524.76" rx="356" ry="322" fill="#535353"/>
<ellipse cx="18487" cy="2431.26" rx="358" ry="321.5" fill="#5C5C5C"/>
<path d="M44.0341 5090.81H96.5909L220.17 5392.66H224.432L348.011 5090.81H400.568V5454.45H359.375V5178.17H355.824L242.188 5454.45H202.415L88.7784 5178.17H85.2273V5454.45H44.0341V5090.81ZM563.432 5460.84C546.15 5460.84 530.466 5457.58 516.38 5451.07C502.293 5444.44 491.107 5434.92 482.821 5422.49C474.535 5409.94 470.392 5394.79 470.392 5377.03C470.392 5361.41 473.47 5348.74 479.625 5339.04C485.781 5329.21 494.007 5321.52 504.306 5315.95C514.604 5310.39 525.968 5306.25 538.397 5303.52C550.944 5300.68 563.551 5298.43 576.216 5296.78C592.788 5294.65 606.223 5293.05 616.522 5291.98C626.938 5290.8 634.514 5288.85 639.249 5286.12C644.102 5283.4 646.529 5278.67 646.529 5271.92V5270.5C646.529 5252.98 641.735 5239.37 632.147 5229.66C622.677 5219.95 608.295 5215.1 589 5215.1C568.996 5215.1 553.311 5219.48 541.948 5228.24C530.584 5237 522.594 5246.35 517.978 5256.29L478.205 5242.09C485.307 5225.52 494.777 5212.61 506.614 5203.38C518.569 5194.03 531.59 5187.52 545.676 5183.85C559.881 5180.06 573.849 5178.17 587.58 5178.17C596.339 5178.17 606.401 5179.23 617.765 5181.36C629.247 5183.38 640.314 5187.58 650.968 5193.97C661.739 5200.36 670.676 5210.01 677.779 5222.91C684.881 5235.82 688.432 5253.1 688.432 5274.76V5454.45H646.529V5417.52H644.398C641.557 5423.43 636.822 5429.77 630.194 5436.51C623.565 5443.26 614.746 5449 603.738 5453.74C592.729 5458.47 579.294 5460.84 563.432 5460.84ZM569.824 5423.2C586.396 5423.2 600.364 5419.94 611.728 5413.43C623.21 5406.92 631.851 5398.52 637.651 5388.22C643.569 5377.92 646.529 5367.09 646.529 5355.73V5317.37C644.753 5319.5 640.847 5321.46 634.81 5323.23C628.891 5324.89 622.026 5326.37 614.213 5327.67C606.519 5328.86 599.003 5329.92 591.664 5330.87C584.443 5331.7 578.584 5332.41 574.086 5333C563.195 5334.42 553.016 5336.73 543.546 5339.92C534.194 5343 526.619 5347.68 520.819 5353.95C515.137 5360.11 512.296 5368.51 512.296 5379.16C512.296 5393.72 517.682 5404.73 528.453 5412.19C539.344 5419.53 553.134 5423.2 569.824 5423.2ZM806.818 5290.38V5454.45H764.915V5181.72H805.398V5224.33H808.949C815.341 5210.48 825.047 5199.36 838.068 5190.95C851.089 5182.43 867.898 5178.17 888.494 5178.17C906.96 5178.17 923.118 5181.96 936.967 5189.53C950.817 5196.99 961.589 5208.35 969.283 5223.62C976.977 5238.77 980.824 5257.95 980.824 5281.15V5454.45H938.92V5283.99C938.92 5262.57 933.357 5245.88 922.23 5233.92C911.103 5221.85 895.833 5215.81 876.42 5215.81C863.045 5215.81 851.089 5218.71 840.554 5224.51C830.137 5230.31 821.911 5238.77 815.874 5249.9C809.837 5261.03 806.818 5274.52 806.818 5290.38ZM1229.27 5342.94V5181.72H1271.17V5454.45H1229.27V5408.28H1226.43C1220.04 5422.13 1210.09 5433.91 1196.6 5443.62C1183.11 5453.2 1166.06 5458 1145.46 5458C1128.42 5458 1113.27 5454.27 1100.01 5446.81C1086.75 5439.24 1076.33 5427.87 1068.76 5412.72C1061.18 5397.45 1057.4 5378.22 1057.4 5355.02V5181.72H1099.3V5352.17C1099.3 5372.06 1104.86 5387.92 1115.99 5399.76C1127.23 5411.6 1141.56 5417.52 1158.96 5417.52C1169.37 5417.52 1179.97 5414.85 1190.74 5409.53C1201.63 5404.2 1210.75 5396.03 1218.08 5385.02C1225.54 5374.01 1229.27 5359.99 1229.27 5342.94ZM1428.18 5460.84C1410.9 5460.84 1395.21 5457.58 1381.13 5451.07C1367.04 5444.44 1355.85 5434.92 1347.57 5422.49C1339.28 5409.94 1335.14 5394.79 1335.14 5377.03C1335.14 5361.41 1338.22 5348.74 1344.37 5339.04C1350.53 5329.21 1358.75 5321.52 1369.05 5315.95C1379.35 5310.39 1390.71 5306.25 1403.14 5303.52C1415.69 5300.68 1428.3 5298.43 1440.96 5296.78C1457.53 5294.65 1470.97 5293.05 1481.27 5291.98C1491.68 5290.8 1499.26 5288.85 1504 5286.12C1508.85 5283.4 1511.27 5278.67 1511.27 5271.92V5270.5C1511.27 5252.98 1506.48 5239.37 1496.89 5229.66C1487.42 5219.95 1473.04 5215.1 1453.75 5215.1C1433.74 5215.1 1418.06 5219.48 1406.69 5228.24C1395.33 5237 1387.34 5246.35 1382.72 5256.29L1342.95 5242.09C1350.05 5225.52 1359.52 5212.61 1371.36 5203.38C1383.32 5194.03 1396.34 5187.52 1410.42 5183.85C1424.63 5180.06 1438.59 5178.17 1452.33 5178.17C1461.09 5178.17 1471.15 5179.23 1482.51 5181.36C1493.99 5183.38 1505.06 5187.58 1515.71 5193.97C1526.49 5200.36 1535.42 5210.01 1542.52 5222.91C1549.63 5235.82 1553.18 5253.1 1553.18 5274.76V5454.45H1511.27V5417.52H1509.14C1506.3 5423.43 1501.57 5429.77 1494.94 5436.51C1488.31 5443.26 1479.49 5449 1468.48 5453.74C1457.48 5458.47 1444.04 5460.84 1428.18 5460.84ZM1434.57 5423.2C1451.14 5423.2 1465.11 5419.94 1476.47 5413.43C1487.96 5406.92 1496.6 5398.52 1502.4 5388.22C1508.32 5377.92 1511.27 5367.09 1511.27 5355.73V5317.37C1509.5 5319.5 1505.59 5321.46 1499.56 5323.23C1493.64 5324.89 1486.77 5326.37 1478.96 5327.67C1471.27 5328.86 1463.75 5329.92 1456.41 5330.87C1449.19 5331.7 1443.33 5332.41 1438.83 5333C1427.94 5334.42 1417.76 5336.73 1408.29 5339.92C1398.94 5343 1391.36 5347.68 1385.56 5353.95C1379.88 5360.11 1377.04 5368.51 1377.04 5379.16C1377.04 5393.72 1382.43 5404.73 1393.2 5412.19C1404.09 5419.53 1417.88 5423.2 1434.57 5423.2ZM1671.56 5090.81V5454.45H1629.66V5090.81H1671.56ZM2201.44 5272.63C2201.44 5310.98 2194.51 5344.13 2180.66 5372.06C2166.81 5400 2147.82 5421.54 2123.67 5436.69C2099.52 5451.84 2071.94 5459.42 2040.93 5459.42C2009.91 5459.42 1982.33 5451.84 1958.19 5436.69C1934.04 5421.54 1915.04 5400 1901.19 5372.06C1887.34 5344.13 1880.42 5310.98 1880.42 5272.63C1880.42 5234.28 1887.34 5201.13 1901.19 5173.2C1915.04 5145.26 1934.04 5123.72 1958.19 5108.57C1982.33 5093.42 2009.91 5085.84 2040.93 5085.84C2071.94 5085.84 2099.52 5093.42 2123.67 5108.57C2147.82 5123.72 2166.81 5145.26 2180.66 5173.2C2194.51 5201.13 2201.44 5234.28 2201.44 5272.63ZM2158.82 5272.63C2158.82 5241.14 2153.56 5214.57 2143.02 5192.91C2132.61 5171.24 2118.46 5154.85 2100.59 5143.72C2082.83 5132.6 2062.94 5127.03 2040.93 5127.03C2018.91 5127.03 1998.96 5132.6 1981.09 5143.72C1963.33 5154.85 1949.19 5171.24 1938.65 5192.91C1928.24 5214.57 1923.03 5241.14 1923.03 5272.63C1923.03 5304.12 1928.24 5330.69 1938.65 5352.35C1949.19 5374.01 1963.33 5390.41 1981.09 5401.54C1998.96 5412.66 2018.91 5418.23 2040.93 5418.23C2062.94 5418.23 2082.83 5412.66 2100.59 5401.54C2118.46 5390.41 2132.61 5374.01 2143.02 5352.35C2153.56 5330.69 2158.82 5304.12 2158.82 5272.63ZM2269.8 5556.72V5181.72H2310.28V5225.04H2315.25C2318.33 5220.31 2322.59 5214.27 2328.04 5206.93C2333.6 5199.48 2341.53 5192.85 2351.83 5187.05C2362.25 5181.13 2376.33 5178.17 2394.09 5178.17C2417.05 5178.17 2437.29 5183.91 2454.81 5195.39C2472.33 5206.87 2486 5223.15 2495.83 5244.22C2505.65 5265.29 2510.56 5290.15 2510.56 5318.79C2510.56 5347.68 2505.65 5372.71 2495.83 5393.9C2486 5414.97 2472.39 5431.31 2454.99 5442.91C2437.59 5454.39 2417.52 5460.13 2394.8 5460.13C2377.28 5460.13 2363.25 5457.23 2352.72 5451.43C2342.18 5445.51 2334.07 5438.82 2328.39 5431.36C2322.71 5423.79 2318.33 5417.52 2315.25 5412.54H2311.7V5556.72H2269.8ZM2310.99 5318.08C2310.99 5338.68 2314.01 5356.85 2320.05 5372.59C2326.08 5388.22 2334.9 5400.47 2346.5 5409.35C2358.1 5418.11 2372.31 5422.49 2389.12 5422.49C2406.63 5422.49 2421.25 5417.87 2432.97 5408.64C2444.81 5399.29 2453.69 5386.74 2459.61 5371C2465.64 5355.13 2468.66 5337.5 2468.66 5318.08C2468.66 5298.91 2465.7 5281.63 2459.78 5266.24C2453.98 5250.73 2445.16 5238.48 2433.33 5229.48C2421.61 5220.37 2406.87 5215.81 2389.12 5215.81C2372.07 5215.81 2357.75 5220.13 2346.15 5228.77C2334.55 5237.3 2325.79 5249.25 2319.87 5264.64C2313.95 5279.91 2310.99 5297.72 2310.99 5318.08ZM2767.67 5242.8L2730.02 5253.45C2727.66 5247.18 2724.17 5241.08 2719.55 5235.16C2715.05 5229.13 2708.9 5224.16 2701.08 5220.25C2693.27 5216.34 2683.27 5214.39 2671.08 5214.39C2654.39 5214.39 2640.48 5218.24 2629.35 5225.93C2618.34 5233.51 2612.84 5243.15 2612.84 5254.87C2612.84 5265.29 2616.63 5273.52 2624.2 5279.55C2631.78 5285.59 2643.61 5290.62 2659.71 5294.65L2700.2 5304.59C2724.58 5310.51 2742.75 5319.56 2754.71 5331.76C2766.66 5343.83 2772.64 5359.4 2772.64 5378.45C2772.64 5394.08 2768.14 5408.05 2759.14 5420.36C2750.27 5432.67 2737.84 5442.37 2721.86 5449.48C2705.88 5456.58 2687.29 5460.13 2666.1 5460.13C2638.29 5460.13 2615.26 5454.09 2597.03 5442.02C2578.81 5429.94 2567.26 5412.31 2562.41 5389.11L2602.18 5379.16C2605.97 5393.84 2613.13 5404.85 2623.67 5412.19C2634.32 5419.53 2648.23 5423.2 2665.39 5423.2C2684.93 5423.2 2700.43 5419.05 2711.91 5410.77C2723.51 5402.36 2729.31 5392.3 2729.31 5380.58C2729.31 5371.11 2726 5363.18 2719.37 5356.79C2712.74 5350.28 2702.56 5345.43 2688.83 5342.23L2643.38 5331.58C2618.4 5325.66 2600.05 5316.49 2588.33 5304.06C2576.73 5291.51 2570.93 5275.83 2570.93 5257C2570.93 5241.62 2575.25 5228 2583.9 5216.17C2592.66 5204.33 2604.55 5195.04 2619.58 5188.29C2634.74 5181.54 2651.9 5178.17 2671.08 5178.17C2698.06 5178.17 2719.25 5184.09 2734.64 5195.92C2750.15 5207.76 2761.16 5223.39 2767.67 5242.8Z" fill="#535353"/>
<path d="M16411.8 3400.8H16365.6L16499.1 3037.16H16544.6L16678.1 3400.8H16632L16523.3 3094.69H16520.4L16411.8 3400.8ZM16428.8 3258.75H16614.9V3297.81H16428.8V3258.75ZM16778.8 3037.16V3400.8H16734.8V3037.16H16778.8ZM17017.7 3199.45V3238.51H16858.6V3199.45H17017.7ZM17209.3 3400.8H17097.1V3037.16H17214.3C17249.5 3037.16 17279.7 3044.44 17304.8 3059C17329.9 3073.44 17349.1 3094.22 17362.5 3121.32C17375.9 3148.31 17382.6 3180.63 17382.6 3218.27C17382.6 3256.15 17375.8 3288.76 17362.3 3316.1C17348.8 3343.33 17329.2 3364.28 17303.4 3378.96C17277.6 3393.52 17246.2 3400.8 17209.3 3400.8ZM17141.1 3361.73H17206.4C17236.5 3361.73 17261.4 3355.93 17281.2 3344.33C17301 3332.73 17315.7 3316.22 17325.4 3294.8C17335.1 3273.37 17340 3247.86 17340 3218.27C17340 3188.91 17335.2 3163.64 17325.6 3142.45C17316 3121.14 17301.7 3104.81 17282.6 3093.45C17263.6 3081.96 17239.8 3076.22 17211.4 3076.22H17141.1V3361.73ZM17450.8 3400.8V3128.07H17491.2V3169.26H17494.1C17499.1 3155.77 17508.1 3144.82 17521.1 3136.41C17534.1 3128.01 17548.8 3123.81 17565.1 3123.81C17568.2 3123.81 17572 3123.87 17576.6 3123.99C17581.3 3124.1 17584.8 3124.28 17587.1 3124.52V3167.13C17585.7 3166.78 17582.4 3166.24 17577.4 3165.53C17572.4 3164.71 17567.1 3164.29 17561.6 3164.29C17548.3 3164.29 17536.5 3167.07 17526 3172.64C17515.7 3178.08 17507.6 3185.66 17501.5 3195.36C17495.6 3204.95 17492.7 3215.9 17492.7 3228.21V3400.8H17450.8ZM17636.8 3400.8V3128.07H17678.7V3400.8H17636.8ZM17658.1 3082.62C17649.9 3082.62 17642.9 3079.83 17637 3074.27C17631.2 3068.71 17628.3 3062.02 17628.3 3054.21C17628.3 3046.39 17631.2 3039.71 17637 3034.14C17642.9 3028.58 17649.9 3025.8 17658.1 3025.8C17666.3 3025.8 17673.3 3028.58 17679.1 3034.14C17685 3039.71 17687.9 3046.39 17687.9 3054.21C17687.9 3062.02 17685 3068.71 17679.1 3074.27C17673.3 3079.83 17666.3 3082.62 17658.1 3082.62ZM17978.5 3128.07L17877.6 3400.8H17835L17734.1 3128.07H17779.6L17854.9 3345.4H17857.7L17933 3128.07H17978.5ZM18138.3 3406.48C18112.1 3406.48 18089.4 3400.68 18070.3 3389.08C18051.4 3377.36 18036.8 3361.02 18026.5 3340.07C18016.3 3319 18011.2 3294.5 18011.2 3266.56C18011.2 3238.63 18016.3 3214.01 18026.5 3192.7C18036.8 3171.28 18051.1 3154.58 18069.5 3142.63C18087.9 3130.56 18109.5 3124.52 18134.1 3124.52C18148.3 3124.52 18162.3 3126.89 18176.2 3131.62C18190 3136.36 18202.6 3144.05 18214 3154.7C18225.4 3165.24 18234.4 3179.21 18241.2 3196.61C18247.9 3214.01 18251.3 3235.43 18251.3 3260.88V3278.64H18041V3242.42H18208.7C18208.7 3227.03 18205.6 3213.3 18199.4 3201.22C18193.4 3189.15 18184.7 3179.62 18173.5 3172.64C18162.4 3165.65 18149.2 3162.16 18134.1 3162.16C18117.4 3162.16 18103 3166.3 18090.8 3174.59C18078.7 3182.76 18069.4 3193.41 18062.9 3206.55C18056.4 3219.69 18053.1 3233.78 18053.1 3248.81V3272.96C18053.1 3293.55 18056.7 3311.01 18063.8 3325.34C18071 3339.54 18081 3350.37 18093.8 3357.83C18106.6 3365.17 18121.4 3368.84 18138.3 3368.84C18149.4 3368.84 18159.3 3367.3 18168.2 3364.22C18177.2 3361.02 18184.9 3356.29 18191.4 3350.02C18197.9 3343.62 18203 3335.69 18206.5 3326.22L18247 3337.59C18242.8 3351.32 18235.6 3363.39 18225.5 3373.81C18215.5 3384.11 18203 3392.16 18188.2 3397.96C18173.4 3403.64 18156.8 3406.48 18138.3 3406.48ZM18356.9 3236.73V3400.8H18315V3128.07H18355.5V3170.68H18359.1C18365.4 3156.83 18375.1 3145.71 18388.2 3137.3C18401.2 3128.78 18418 3124.52 18438.6 3124.52C18457.1 3124.52 18473.2 3128.31 18487.1 3135.88C18500.9 3143.34 18511.7 3154.7 18519.4 3169.97C18527.1 3185.12 18530.9 3204.3 18530.9 3227.5V3400.8H18489V3230.34C18489 3208.92 18483.5 3192.23 18472.3 3180.27C18461.2 3168.2 18445.9 3162.16 18426.5 3162.16C18413.1 3162.16 18401.2 3165.06 18390.7 3170.86C18380.2 3176.66 18372 3185.12 18366 3196.25C18359.9 3207.38 18356.9 3220.87 18356.9 3236.73ZM19060.6 3218.98C19060.6 3257.33 19053.7 3290.47 19039.8 3318.41C19026 3346.35 19007 3367.89 18982.9 3383.04C18958.7 3398.19 18931.1 3405.77 18900.1 3405.77C18869.1 3405.77 18841.5 3398.19 18817.4 3383.04C18793.2 3367.89 18774.2 3346.35 18760.4 3318.41C18746.5 3290.47 18739.6 3257.33 18739.6 3218.98C18739.6 3180.63 18746.5 3147.48 18760.4 3119.55C18774.2 3091.61 18793.2 3070.07 18817.4 3054.92C18841.5 3039.76 18869.1 3032.19 18900.1 3032.19C18931.1 3032.19 18958.7 3039.76 18982.9 3054.92C19007 3070.07 19026 3091.61 19039.8 3119.55C19053.7 3147.48 19060.6 3180.63 19060.6 3218.98ZM19018 3218.98C19018 3187.49 19012.7 3160.92 19002.2 3139.26C18991.8 3117.59 18977.6 3101.2 18959.8 3090.07C18942 3078.95 18922.1 3073.38 18900.1 3073.38C18878.1 3073.38 18858.1 3078.95 18840.3 3090.07C18822.5 3101.2 18808.4 3117.59 18797.8 3139.26C18787.4 3160.92 18782.2 3187.49 18782.2 3218.98C18782.2 3250.47 18787.4 3277.04 18797.8 3298.7C18808.4 3320.36 18822.5 3336.76 18840.3 3347.88C18858.1 3359.01 18878.1 3364.58 18900.1 3364.58C18922.1 3364.58 18942 3359.01 18959.8 3347.88C18977.6 3336.76 18991.8 3320.36 19002.2 3298.7C19012.7 3277.04 19018 3250.47 19018 3218.98ZM19129 3503.07V3128.07H19169.5V3171.39H19174.4C19177.5 3166.66 19181.8 3160.62 19187.2 3153.28C19192.8 3145.83 19200.7 3139.2 19211 3133.4C19221.4 3127.48 19235.5 3124.52 19253.3 3124.52C19276.2 3124.52 19296.5 3130.26 19314 3141.74C19331.5 3153.22 19345.2 3169.5 19355 3190.57C19364.8 3211.64 19369.7 3236.5 19369.7 3265.14C19369.7 3294.03 19364.8 3319.06 19355 3340.25C19345.2 3361.32 19331.6 3377.66 19314.2 3389.26C19296.8 3400.74 19276.7 3406.48 19254 3406.48C19236.5 3406.48 19222.4 3403.58 19211.9 3397.78C19201.4 3391.86 19193.3 3385.17 19187.6 3377.71C19181.9 3370.14 19177.5 3363.87 19174.4 3358.89H19170.9V3503.07H19129ZM19170.2 3264.43C19170.2 3285.03 19173.2 3303.2 19179.2 3318.94C19185.3 3334.57 19194.1 3346.82 19205.7 3355.7C19217.3 3364.46 19231.5 3368.84 19248.3 3368.84C19265.8 3368.84 19280.4 3364.22 19292.2 3354.99C19304 3345.64 19312.9 3333.09 19318.8 3317.35C19324.8 3301.48 19327.8 3283.85 19327.8 3264.43C19327.8 3245.26 19324.9 3227.97 19319 3212.59C19313.2 3197.08 19304.3 3184.83 19292.5 3175.83C19280.8 3166.72 19266.1 3162.16 19248.3 3162.16C19231.3 3162.16 19216.9 3166.48 19205.3 3175.12C19193.7 3183.64 19185 3195.6 19179.1 3210.99C19173.1 3226.26 19170.2 3244.07 19170.2 3264.43ZM19626.9 3189.15L19589.2 3199.8C19586.8 3193.53 19583.3 3187.43 19578.7 3181.51C19574.2 3175.48 19568.1 3170.51 19560.3 3166.6C19552.5 3162.69 19542.5 3160.74 19530.3 3160.74C19513.6 3160.74 19499.7 3164.59 19488.5 3172.28C19477.5 3179.86 19472 3189.5 19472 3201.22C19472 3211.64 19475.8 3219.87 19483.4 3225.9C19491 3231.94 19502.8 3236.97 19518.9 3241L19559.4 3250.94C19583.8 3256.86 19601.9 3265.91 19613.9 3278.11C19625.8 3290.18 19631.8 3305.74 19631.8 3324.8C19631.8 3340.43 19627.3 3354.4 19618.3 3366.71C19609.4 3379.02 19597 3388.72 19581 3395.83C19565.1 3402.93 19546.5 3406.48 19525.3 3406.48C19497.5 3406.48 19474.4 3400.44 19456.2 3388.37C19438 3376.29 19426.4 3358.66 19421.6 3335.46L19461.4 3325.51C19465.2 3340.19 19472.3 3351.2 19482.9 3358.54C19493.5 3365.88 19507.4 3369.55 19524.6 3369.55C19544.1 3369.55 19559.6 3365.4 19571.1 3357.12C19582.7 3348.71 19588.5 3338.65 19588.5 3326.93C19588.5 3317.46 19585.2 3309.53 19578.6 3303.14C19571.9 3296.63 19561.7 3291.78 19548 3288.58L19502.6 3277.93C19477.6 3272.01 19459.2 3262.84 19447.5 3250.41C19435.9 3237.86 19430.1 3222.17 19430.1 3203.35C19430.1 3187.97 19434.4 3174.35 19443.1 3162.52C19451.8 3150.68 19463.7 3141.39 19478.8 3134.64C19493.9 3127.89 19511.1 3124.52 19530.3 3124.52C19557.2 3124.52 19578.4 3130.44 19593.8 3142.27C19609.3 3154.11 19620.3 3169.74 19626.9 3189.15Z" fill="#5C5C5C"/>
</svg>
