<svg width="198" height="200" viewBox="0 0 198 200" fill="none" xmlns="http://www.w3.org/2000/svg">
<path fill-rule="evenodd" clip-rule="evenodd" d="M29.1692 29.1693C68.0616 -9.72309 131.119 -9.72309 170.011 29.1693C184.228 43.3866 193.248 60.8331 197.071 79.1478H180.876C171.651 43.9166 139.14 17.8861 100.449 17.8861C54.5826 17.8862 17.4008 54.4665 17.4007 99.5902L17.4075 100.646C17.9777 144.932 54.3611 180.726 99.3753 181.287L100.449 181.294C137.467 181.294 168.829 157.465 179.55 124.547H196.018C191.723 141.204 183.055 156.967 170.011 170.011C131.119 208.903 68.0616 208.903 29.1692 170.011C-9.7231 131.119 -9.72305 68.0616 29.1692 29.1693ZM100.449 24.8861C135.308 24.8861 164.57 47.8825 173.611 79.1478H157.603C149.114 56.1799 126.728 39.7758 100.449 39.7757C66.8709 39.7758 39.651 66.555 39.6507 99.5892C39.6507 132.624 66.8707 159.404 100.449 159.404C124.971 159.404 146.102 145.119 155.716 124.547H172.145C161.701 153.486 133.608 174.294 100.449 174.294C58.3405 174.294 24.4009 140.741 24.4007 99.5902C24.4008 58.4397 58.3405 24.8862 100.449 24.8861Z" fill="white"/>
</svg>
