<svg width="382" height="137" viewBox="0 0 382 137" fill="none" xmlns="http://www.w3.org/2000/svg">
<rect width="382" height="137" fill="#1E1E1E"/>
<path d="M10 0.5H372C377.247 0.5 381.5 4.75329 381.5 10V127C381.5 132.247 377.247 136.5 372 136.5H10C4.7533 136.5 0.5 132.247 0.5 127V10C0.5 4.7533 4.75329 0.5 10 0.5Z" fill="url(#paint0_radial_0_1)" stroke="#303030"/>
<path d="M196.784 93.5C263.017 93.5 323.736 108.744 371.033 134.091L19.9521 135.492C67.6123 109.307 129.339 93.5 196.784 93.5Z" fill="black" stroke="black"/>
<mask id="path-3-outside-1_0_1" maskUnits="userSpaceOnUse" x="96" y="47" width="185" height="27" fill="black">
<rect fill="white" x="96" y="47" width="185" height="27"/>
<path d="M100.469 64.5938C100.542 65.8958 100.849 66.9531 101.391 67.7656C102.422 69.2865 104.24 70.0469 106.844 70.0469C108.01 70.0469 109.073 69.8802 110.031 69.5469C111.885 68.901 112.812 67.7448 112.812 66.0781C112.812 64.8281 112.422 63.9375 111.641 63.4062C110.849 62.8854 109.609 62.4323 107.922 62.0469L104.812 61.3438C102.781 60.8854 101.344 60.3802 100.5 59.8281C99.0417 58.8698 98.3125 57.4375 98.3125 55.5312C98.3125 53.4688 99.026 51.776 100.453 50.4531C101.88 49.1302 103.901 48.4688 106.516 48.4688C108.922 48.4688 110.964 49.0521 112.641 50.2188C114.328 51.375 115.172 53.2292 115.172 55.7812H112.25C112.094 54.5521 111.76 53.6094 111.25 52.9531C110.302 51.7552 108.693 51.1562 106.422 51.1562C104.589 51.1562 103.271 51.5417 102.469 52.3125C101.667 53.0833 101.266 53.9792 101.266 55C101.266 56.125 101.734 56.9479 102.672 57.4688C103.286 57.8021 104.677 58.2188 106.844 58.7188L110.062 59.4531C111.615 59.8073 112.812 60.2917 113.656 60.9062C115.115 61.9792 115.844 63.5365 115.844 65.5781C115.844 68.1198 114.917 69.9375 113.062 71.0312C111.219 72.125 109.073 72.6719 106.625 72.6719C103.771 72.6719 101.536 71.9427 99.9219 70.4844C98.3073 69.0365 97.5156 67.0729 97.5469 64.5938H100.469ZM129.688 48.4219C133.74 48.4219 136.74 49.724 138.688 52.3281C140.208 54.3594 140.969 56.9583 140.969 60.125C140.969 63.5521 140.099 66.401 138.359 68.6719C136.318 71.3385 133.406 72.6719 129.625 72.6719C126.094 72.6719 123.318 71.5052 121.297 69.1719C119.495 66.9219 118.594 64.0781 118.594 60.6406C118.594 57.5365 119.365 54.8802 120.906 52.6719C122.885 49.8385 125.812 48.4219 129.688 48.4219ZM130 69.8906C132.74 69.8906 134.719 68.9115 135.938 66.9531C137.167 64.9844 137.781 62.724 137.781 60.1719C137.781 57.474 137.073 55.3021 135.656 53.6562C134.25 52.0104 132.323 51.1875 129.875 51.1875C127.5 51.1875 125.562 52.0052 124.062 53.6406C122.562 55.2656 121.812 57.6667 121.812 60.8438C121.812 63.3854 122.453 65.5312 123.734 67.2812C125.026 69.0208 127.115 69.8906 130 69.8906ZM144.688 49.0469H147.797V69.2656H159.422V72H144.688V49.0469ZM165.875 49.0469V63.2344C165.875 64.901 166.188 66.2865 166.812 67.3906C167.74 69.0573 169.302 69.8906 171.5 69.8906C174.135 69.8906 175.927 68.9896 176.875 67.1875C177.385 66.2083 177.641 64.8906 177.641 63.2344V49.0469H180.797V61.9375C180.797 64.7604 180.417 66.9323 179.656 68.4531C178.26 71.224 175.625 72.6094 171.75 72.6094C167.875 72.6094 165.245 71.224 163.859 68.4531C163.099 66.9323 162.719 64.7604 162.719 61.9375V49.0469H165.875ZM202.328 49.0469V51.7812H194.594V72H191.438V51.7812H183.703V49.0469H202.328ZM205.891 49.0469H209.031V72H205.891V49.0469ZM224 48.4219C228.052 48.4219 231.052 49.724 233 52.3281C234.521 54.3594 235.281 56.9583 235.281 60.125C235.281 63.5521 234.411 66.401 232.672 68.6719C230.63 71.3385 227.719 72.6719 223.938 72.6719C220.406 72.6719 217.63 71.5052 215.609 69.1719C213.807 66.9219 212.906 64.0781 212.906 60.6406C212.906 57.5365 213.677 54.8802 215.219 52.6719C217.198 49.8385 220.125 48.4219 224 48.4219ZM224.312 69.8906C227.052 69.8906 229.031 68.9115 230.25 66.9531C231.479 64.9844 232.094 62.724 232.094 60.1719C232.094 57.474 231.385 55.3021 229.969 53.6562C228.562 52.0104 226.635 51.1875 224.188 51.1875C221.812 51.1875 219.875 52.0052 218.375 53.6406C216.875 55.2656 216.125 57.6667 216.125 60.8438C216.125 63.3854 216.766 65.5312 218.047 67.2812C219.339 69.0208 221.427 69.8906 224.312 69.8906ZM239 49.0469H242.672L254.266 67.6406V49.0469H257.219V72H253.734L241.969 53.4219V72H239V49.0469ZM264.156 64.5938C264.229 65.8958 264.536 66.9531 265.078 67.7656C266.109 69.2865 267.927 70.0469 270.531 70.0469C271.698 70.0469 272.76 69.8802 273.719 69.5469C275.573 68.901 276.5 67.7448 276.5 66.0781C276.5 64.8281 276.109 63.9375 275.328 63.4062C274.536 62.8854 273.297 62.4323 271.609 62.0469L268.5 61.3438C266.469 60.8854 265.031 60.3802 264.188 59.8281C262.729 58.8698 262 57.4375 262 55.5312C262 53.4688 262.714 51.776 264.141 50.4531C265.568 49.1302 267.589 48.4688 270.203 48.4688C272.609 48.4688 274.651 49.0521 276.328 50.2188C278.016 51.375 278.859 53.2292 278.859 55.7812H275.938C275.781 54.5521 275.448 53.6094 274.938 52.9531C273.99 51.7552 272.38 51.1562 270.109 51.1562C268.276 51.1562 266.958 51.5417 266.156 52.3125C265.354 53.0833 264.953 53.9792 264.953 55C264.953 56.125 265.422 56.9479 266.359 57.4688C266.974 57.8021 268.365 58.2188 270.531 58.7188L273.75 59.4531C275.302 59.8073 276.5 60.2917 277.344 60.9062C278.802 61.9792 279.531 63.5365 279.531 65.5781C279.531 68.1198 278.604 69.9375 276.75 71.0312C274.906 72.125 272.76 72.6719 270.312 72.6719C267.458 72.6719 265.224 71.9427 263.609 70.4844C261.995 69.0365 261.203 67.0729 261.234 64.5938H264.156Z"/>
</mask>
<path d="M100.469 64.5938C100.542 65.8958 100.849 66.9531 101.391 67.7656C102.422 69.2865 104.24 70.0469 106.844 70.0469C108.01 70.0469 109.073 69.8802 110.031 69.5469C111.885 68.901 112.812 67.7448 112.812 66.0781C112.812 64.8281 112.422 63.9375 111.641 63.4062C110.849 62.8854 109.609 62.4323 107.922 62.0469L104.812 61.3438C102.781 60.8854 101.344 60.3802 100.5 59.8281C99.0417 58.8698 98.3125 57.4375 98.3125 55.5312C98.3125 53.4688 99.026 51.776 100.453 50.4531C101.88 49.1302 103.901 48.4688 106.516 48.4688C108.922 48.4688 110.964 49.0521 112.641 50.2188C114.328 51.375 115.172 53.2292 115.172 55.7812H112.25C112.094 54.5521 111.76 53.6094 111.25 52.9531C110.302 51.7552 108.693 51.1562 106.422 51.1562C104.589 51.1562 103.271 51.5417 102.469 52.3125C101.667 53.0833 101.266 53.9792 101.266 55C101.266 56.125 101.734 56.9479 102.672 57.4688C103.286 57.8021 104.677 58.2188 106.844 58.7188L110.062 59.4531C111.615 59.8073 112.812 60.2917 113.656 60.9062C115.115 61.9792 115.844 63.5365 115.844 65.5781C115.844 68.1198 114.917 69.9375 113.062 71.0312C111.219 72.125 109.073 72.6719 106.625 72.6719C103.771 72.6719 101.536 71.9427 99.9219 70.4844C98.3073 69.0365 97.5156 67.0729 97.5469 64.5938H100.469ZM129.688 48.4219C133.74 48.4219 136.74 49.724 138.688 52.3281C140.208 54.3594 140.969 56.9583 140.969 60.125C140.969 63.5521 140.099 66.401 138.359 68.6719C136.318 71.3385 133.406 72.6719 129.625 72.6719C126.094 72.6719 123.318 71.5052 121.297 69.1719C119.495 66.9219 118.594 64.0781 118.594 60.6406C118.594 57.5365 119.365 54.8802 120.906 52.6719C122.885 49.8385 125.812 48.4219 129.688 48.4219ZM130 69.8906C132.74 69.8906 134.719 68.9115 135.938 66.9531C137.167 64.9844 137.781 62.724 137.781 60.1719C137.781 57.474 137.073 55.3021 135.656 53.6562C134.25 52.0104 132.323 51.1875 129.875 51.1875C127.5 51.1875 125.562 52.0052 124.062 53.6406C122.562 55.2656 121.812 57.6667 121.812 60.8438C121.812 63.3854 122.453 65.5312 123.734 67.2812C125.026 69.0208 127.115 69.8906 130 69.8906ZM144.688 49.0469H147.797V69.2656H159.422V72H144.688V49.0469ZM165.875 49.0469V63.2344C165.875 64.901 166.188 66.2865 166.812 67.3906C167.74 69.0573 169.302 69.8906 171.5 69.8906C174.135 69.8906 175.927 68.9896 176.875 67.1875C177.385 66.2083 177.641 64.8906 177.641 63.2344V49.0469H180.797V61.9375C180.797 64.7604 180.417 66.9323 179.656 68.4531C178.26 71.224 175.625 72.6094 171.75 72.6094C167.875 72.6094 165.245 71.224 163.859 68.4531C163.099 66.9323 162.719 64.7604 162.719 61.9375V49.0469H165.875ZM202.328 49.0469V51.7812H194.594V72H191.438V51.7812H183.703V49.0469H202.328ZM205.891 49.0469H209.031V72H205.891V49.0469ZM224 48.4219C228.052 48.4219 231.052 49.724 233 52.3281C234.521 54.3594 235.281 56.9583 235.281 60.125C235.281 63.5521 234.411 66.401 232.672 68.6719C230.63 71.3385 227.719 72.6719 223.938 72.6719C220.406 72.6719 217.63 71.5052 215.609 69.1719C213.807 66.9219 212.906 64.0781 212.906 60.6406C212.906 57.5365 213.677 54.8802 215.219 52.6719C217.198 49.8385 220.125 48.4219 224 48.4219ZM224.312 69.8906C227.052 69.8906 229.031 68.9115 230.25 66.9531C231.479 64.9844 232.094 62.724 232.094 60.1719C232.094 57.474 231.385 55.3021 229.969 53.6562C228.562 52.0104 226.635 51.1875 224.188 51.1875C221.812 51.1875 219.875 52.0052 218.375 53.6406C216.875 55.2656 216.125 57.6667 216.125 60.8438C216.125 63.3854 216.766 65.5312 218.047 67.2812C219.339 69.0208 221.427 69.8906 224.312 69.8906ZM239 49.0469H242.672L254.266 67.6406V49.0469H257.219V72H253.734L241.969 53.4219V72H239V49.0469ZM264.156 64.5938C264.229 65.8958 264.536 66.9531 265.078 67.7656C266.109 69.2865 267.927 70.0469 270.531 70.0469C271.698 70.0469 272.76 69.8802 273.719 69.5469C275.573 68.901 276.5 67.7448 276.5 66.0781C276.5 64.8281 276.109 63.9375 275.328 63.4062C274.536 62.8854 273.297 62.4323 271.609 62.0469L268.5 61.3438C266.469 60.8854 265.031 60.3802 264.188 59.8281C262.729 58.8698 262 57.4375 262 55.5312C262 53.4688 262.714 51.776 264.141 50.4531C265.568 49.1302 267.589 48.4688 270.203 48.4688C272.609 48.4688 274.651 49.0521 276.328 50.2188C278.016 51.375 278.859 53.2292 278.859 55.7812H275.938C275.781 54.5521 275.448 53.6094 274.938 52.9531C273.99 51.7552 272.38 51.1562 270.109 51.1562C268.276 51.1562 266.958 51.5417 266.156 52.3125C265.354 53.0833 264.953 53.9792 264.953 55C264.953 56.125 265.422 56.9479 266.359 57.4688C266.974 57.8021 268.365 58.2188 270.531 58.7188L273.75 59.4531C275.302 59.8073 276.5 60.2917 277.344 60.9062C278.802 61.9792 279.531 63.5365 279.531 65.5781C279.531 68.1198 278.604 69.9375 276.75 71.0312C274.906 72.125 272.76 72.6719 270.312 72.6719C267.458 72.6719 265.224 71.9427 263.609 70.4844C261.995 69.0365 261.203 67.0729 261.234 64.5938H264.156Z" fill="#C2C2C2"/>
<path d="M100.469 64.5938L101.467 64.5378L101.414 63.5938H100.469V64.5938ZM101.391 67.7656L100.559 68.3203L100.563 68.3268L101.391 67.7656ZM110.031 69.5469L110.36 70.4914L110.36 70.4912L110.031 69.5469ZM111.641 63.4062L112.203 62.5793L112.197 62.575L112.19 62.5708L111.641 63.4062ZM107.922 62.0469L108.145 61.072L108.142 61.0715L107.922 62.0469ZM104.812 61.3438L105.033 60.3684L105.033 60.3683L104.812 61.3438ZM100.5 59.8281L99.9508 60.6638L99.9525 60.6649L100.5 59.8281ZM112.641 50.2188L112.07 51.0397L112.075 51.0437L112.641 50.2188ZM115.172 55.7812V56.7812H116.172V55.7812H115.172ZM112.25 55.7812L111.258 55.9074L111.369 56.7812H112.25V55.7812ZM111.25 52.9531L112.039 52.3392L112.034 52.3326L111.25 52.9531ZM102.672 57.4688L102.186 58.343L102.195 58.3478L102.672 57.4688ZM106.844 58.7188L106.619 59.6931L106.621 59.6937L106.844 58.7188ZM110.062 59.4531L110.285 58.4782L110.285 58.4782L110.062 59.4531ZM113.656 60.9062L114.249 60.1007L114.245 60.0979L113.656 60.9062ZM113.062 71.0312L112.554 70.1699L112.552 70.1712L113.062 71.0312ZM99.9219 70.4844L100.592 69.7423L100.59 69.7399L99.9219 70.4844ZM97.5469 64.5938V63.5938H96.5594L96.547 64.5811L97.5469 64.5938ZM100.469 64.5938L99.4703 64.6497C99.55 66.072 99.8901 67.3176 100.559 68.3203L101.391 67.7656L102.223 67.2109C101.808 66.5886 101.533 65.7196 101.467 64.5378L100.469 64.5938ZM101.391 67.7656L100.563 68.3268C101.851 70.2261 104.057 71.0469 106.844 71.0469V70.0469V69.0469C104.422 69.0469 102.993 68.3468 102.218 67.2044L101.391 67.7656ZM106.844 70.0469V71.0469C108.106 71.0469 109.281 70.8665 110.36 70.4914L110.031 69.5469L109.703 68.6024C108.865 68.8939 107.915 69.0469 106.844 69.0469V70.0469ZM110.031 69.5469L110.36 70.4912C111.408 70.1261 112.284 69.5859 112.897 68.8209C113.521 68.0432 113.812 67.1089 113.812 66.0781H112.812H111.812C111.812 66.714 111.641 67.1911 111.337 67.5698C111.023 67.9609 110.508 68.3218 109.702 68.6025L110.031 69.5469ZM112.812 66.0781H113.812C113.812 64.6155 113.343 63.3547 112.203 62.5793L111.641 63.4062L111.078 64.2332C111.501 64.5203 111.812 65.0408 111.812 66.0781H112.812ZM111.641 63.4062L112.19 62.5708C111.248 61.9508 109.869 61.4658 108.145 61.072L107.922 62.0469L107.699 63.0218C109.35 63.3988 110.45 63.82 111.091 64.2417L111.641 63.4062ZM107.922 62.0469L108.142 61.0715L105.033 60.3684L104.812 61.3438L104.592 62.3191L107.701 63.0222L107.922 62.0469ZM104.812 61.3438L105.033 60.3683C103.021 59.9143 101.733 59.4396 101.048 58.9913L100.5 59.8281L99.9525 60.6649C100.955 61.3208 102.542 61.8565 104.592 62.3192L104.812 61.3438ZM100.5 59.8281L101.049 58.9924C99.9017 58.2384 99.3125 57.1377 99.3125 55.5312H98.3125H97.3125C97.3125 57.7373 98.1816 59.5012 99.9508 60.6638L100.5 59.8281ZM98.3125 55.5312H99.3125C99.3125 53.7284 99.9234 52.3078 101.133 51.1865L100.453 50.4531L99.7733 49.7198C98.1287 51.2443 97.3125 53.2091 97.3125 55.5312H98.3125ZM100.453 50.4531L101.133 51.1865C102.319 50.0868 104.065 49.4688 106.516 49.4688V48.4688V47.4688C103.737 47.4688 101.441 48.1736 99.7733 49.7198L100.453 50.4531ZM106.516 48.4688V49.4688C108.755 49.4688 110.588 50.0092 112.07 51.0397L112.641 50.2188L113.212 49.3978C111.339 48.095 109.089 47.4688 106.516 47.4688V48.4688ZM112.641 50.2188L112.075 51.0437C113.423 51.9668 114.172 53.4669 114.172 55.7812H115.172H116.172C116.172 52.9915 115.234 50.7832 113.206 49.3938L112.641 50.2188ZM115.172 55.7812V54.7812H112.25V55.7812V56.7812H115.172V55.7812ZM112.25 55.7812L113.242 55.6551C113.073 54.3292 112.701 53.1899 112.039 52.3392L111.25 52.9531L110.461 53.5671C110.82 54.0288 111.114 54.7749 111.258 55.9074L112.25 55.7812ZM111.25 52.9531L112.034 52.3326C110.818 50.7962 108.845 50.1562 106.422 50.1562V51.1562V52.1562C108.54 52.1562 109.786 52.7142 110.466 53.5737L111.25 52.9531ZM106.422 51.1562V50.1562C104.488 50.1562 102.853 50.5559 101.776 51.5915L102.469 52.3125L103.162 53.0335C103.688 52.5274 104.689 52.1562 106.422 52.1562V51.1562ZM102.469 52.3125L101.776 51.5915C100.797 52.5321 100.266 53.6811 100.266 55H101.266H102.266C102.266 54.2772 102.536 53.6346 103.162 53.0335L102.469 52.3125ZM101.266 55H100.266C100.266 55.7034 100.413 56.3675 100.748 56.9559C101.085 57.5467 101.579 58.0056 102.186 58.3429L102.672 57.4688L103.158 56.5946C102.827 56.4111 102.618 56.1981 102.486 55.966C102.352 55.7314 102.266 55.4216 102.266 55H101.266ZM102.672 57.4688L102.195 58.3478C102.951 58.7577 104.481 59.1998 106.619 59.6931L106.844 58.7188L107.069 57.7444C104.873 57.2377 103.622 56.8465 103.149 56.5897L102.672 57.4688ZM106.844 58.7188L106.621 59.6937L109.84 60.4281L110.062 59.4531L110.285 58.4782L107.066 57.7438L106.844 58.7188ZM110.062 59.4531L109.84 60.4281C111.323 60.7663 112.375 61.2104 113.067 61.7146L113.656 60.9062L114.245 60.0979C113.25 59.3729 111.907 58.8482 110.285 58.4782L110.062 59.4531ZM113.656 60.9062L113.064 61.7117C114.23 62.5702 114.844 63.8078 114.844 65.5781H115.844H116.844C116.844 63.2651 115.999 61.3882 114.249 60.1008L113.656 60.9062ZM115.844 65.5781H114.844C114.844 67.8414 114.044 69.2914 112.554 70.1699L113.062 71.0312L113.571 71.8926C115.79 70.5836 116.844 68.3981 116.844 65.5781H115.844ZM113.062 71.0312L112.552 70.1712C110.884 71.1609 108.919 71.6719 106.625 71.6719V72.6719V73.6719C109.227 73.6719 111.554 73.0891 113.573 71.8913L113.062 71.0312ZM106.625 72.6719V71.6719C103.939 71.6719 101.972 70.9883 100.592 69.7423L99.9219 70.4844L99.2516 71.2265C101.101 72.8971 103.602 73.6719 106.625 73.6719V72.6719ZM99.9219 70.4844L100.59 69.7399C99.2217 68.5132 98.5186 66.8429 98.5468 64.6064L97.5469 64.5938L96.547 64.5811C96.5126 67.3029 97.3929 69.5597 99.2542 71.2289L99.9219 70.4844ZM97.5469 64.5938V65.5938H100.469V64.5938V63.5938H97.5469V64.5938ZM138.688 52.3281L137.887 52.9271L137.887 52.9275L138.688 52.3281ZM138.359 68.6719L137.566 68.0637L137.565 68.064L138.359 68.6719ZM121.297 69.1719L120.516 69.797L120.528 69.812L120.541 69.8265L121.297 69.1719ZM120.906 52.6719L120.086 52.0992L120.086 52.0995L120.906 52.6719ZM135.938 66.9531L135.089 66.4235L135.088 66.4248L135.938 66.9531ZM135.656 53.6562L134.896 54.3059L134.898 54.3086L135.656 53.6562ZM124.062 53.6406L124.797 54.3189L124.799 54.3166L124.062 53.6406ZM123.734 67.2812L122.927 67.872L122.931 67.8774L123.734 67.2812ZM129.688 48.4219V49.4219C133.511 49.4219 136.174 50.6372 137.887 52.9271L138.688 52.3281L139.488 51.7292C137.305 48.8108 133.969 47.4219 129.688 47.4219V48.4219ZM138.688 52.3281L137.887 52.9275C139.249 54.7467 139.969 57.12 139.969 60.125H140.969H141.969C141.969 56.7966 141.168 53.972 139.488 51.7288L138.688 52.3281ZM140.969 60.125H139.969C139.969 63.3771 139.146 66 137.566 68.0637L138.359 68.6719L139.153 69.28C141.051 66.802 141.969 63.727 141.969 60.125H140.969ZM138.359 68.6719L137.565 68.064C135.739 70.45 133.14 71.6719 129.625 71.6719V72.6719V73.6719C133.673 73.6719 136.897 72.2271 139.153 69.2798L138.359 68.6719ZM129.625 72.6719V71.6719C126.337 71.6719 123.855 70.5984 122.053 68.5172L121.297 69.1719L120.541 69.8265C122.78 72.412 125.85 73.6719 129.625 73.6719V72.6719ZM121.297 69.1719L122.077 68.5467C120.443 66.5066 119.594 63.8963 119.594 60.6406H118.594H117.594C117.594 64.2599 118.546 67.3371 120.516 69.797L121.297 69.1719ZM118.594 60.6406H119.594C119.594 57.7089 120.319 55.2601 121.726 53.2443L120.906 52.6719L120.086 52.0995C118.41 54.5003 117.594 57.364 117.594 60.6406H118.594ZM120.906 52.6719L121.726 53.2445C123.493 50.7146 126.093 49.4219 129.688 49.4219V48.4219V47.4219C125.532 47.4219 122.278 48.9624 120.086 52.0992L120.906 52.6719ZM130 69.8906V70.8906C133.009 70.8906 135.348 69.7922 136.787 67.4815L135.938 66.9531L135.088 66.4248C134.089 68.0308 132.47 68.8906 130 68.8906V69.8906ZM135.938 66.9531L136.786 67.4827C138.124 65.3395 138.781 62.8919 138.781 60.1719H137.781H136.781C136.781 62.556 136.209 64.6292 135.089 66.4235L135.938 66.9531ZM137.781 60.1719H138.781C138.781 57.2946 138.022 54.872 136.414 53.0039L135.656 53.6562L134.898 54.3086C136.124 55.7321 136.781 57.6533 136.781 60.1719H137.781ZM135.656 53.6562L136.417 53.0066C134.794 51.1079 132.573 50.1875 129.875 50.1875V51.1875V52.1875C132.073 52.1875 133.706 52.913 134.896 54.3059L135.656 53.6562ZM129.875 51.1875V50.1875C127.242 50.1875 125.029 51.107 123.326 52.9647L124.062 53.6406L124.799 54.3166C126.096 52.9034 127.758 52.1875 129.875 52.1875V51.1875ZM124.062 53.6406L123.328 52.9623C121.595 54.839 120.812 57.5243 120.812 60.8438H121.812H122.812C122.812 57.809 123.53 55.6922 124.797 54.3189L124.062 53.6406ZM121.812 60.8438H120.812C120.812 63.5601 121.5 65.9225 122.928 67.872L123.734 67.2812L124.541 66.6905C123.406 65.14 122.812 63.2107 122.812 60.8438H121.812ZM123.734 67.2812L122.931 67.8774C124.471 69.9505 126.912 70.8906 130 70.8906V69.8906V68.8906C127.317 68.8906 125.581 68.0912 124.537 66.6851L123.734 67.2812ZM144.688 49.0469V48.0469H143.688V49.0469H144.688ZM147.797 49.0469H148.797V48.0469H147.797V49.0469ZM147.797 69.2656H146.797V70.2656H147.797V69.2656ZM159.422 69.2656H160.422V68.2656H159.422V69.2656ZM159.422 72V73H160.422V72H159.422ZM144.688 72H143.688V73H144.688V72ZM144.688 49.0469V50.0469H147.797V49.0469V48.0469H144.688V49.0469ZM147.797 49.0469H146.797V69.2656H147.797H148.797V49.0469H147.797ZM147.797 69.2656V70.2656H159.422V69.2656V68.2656H147.797V69.2656ZM159.422 69.2656H158.422V72H159.422H160.422V69.2656H159.422ZM159.422 72V71H144.688V72V73H159.422V72ZM144.688 72H145.688V49.0469H144.688H143.688V72H144.688ZM165.875 49.0469H166.875V48.0469H165.875V49.0469ZM166.812 67.3906L167.686 66.9045L167.683 66.898L166.812 67.3906ZM176.875 67.1875L177.76 67.653L177.762 67.6497L176.875 67.1875ZM177.641 49.0469V48.0469H176.641V49.0469H177.641ZM180.797 49.0469H181.797V48.0469H180.797V49.0469ZM179.656 68.4531L180.549 68.903L180.551 68.9003L179.656 68.4531ZM162.719 49.0469V48.0469H161.719V49.0469H162.719ZM165.875 49.0469H164.875V63.2344H165.875H166.875V49.0469H165.875ZM165.875 63.2344H164.875C164.875 65.0212 165.21 66.5889 165.942 67.8832L166.812 67.3906L167.683 66.898C167.165 65.984 166.875 64.7809 166.875 63.2344H165.875ZM166.812 67.3906L165.939 67.8767C167.072 69.9149 169.006 70.8906 171.5 70.8906V69.8906V68.8906C169.598 68.8906 168.407 68.1997 167.686 66.9045L166.812 67.3906ZM171.5 69.8906V70.8906C174.379 70.8906 176.587 69.8834 177.76 67.653L176.875 67.1875L175.99 66.722C175.267 68.0957 173.892 68.8906 171.5 68.8906V69.8906ZM176.875 67.1875L177.762 67.6497C178.375 66.4742 178.641 64.9777 178.641 63.2344H177.641H176.641C176.641 64.8036 176.396 65.9424 175.988 66.7253L176.875 67.1875ZM177.641 63.2344H178.641V49.0469H177.641H176.641V63.2344H177.641ZM177.641 49.0469V50.0469H180.797V49.0469V48.0469H177.641V49.0469ZM180.797 49.0469H179.797V61.9375H180.797H181.797V49.0469H180.797ZM180.797 61.9375H179.797C179.797 64.6952 179.421 66.6867 178.762 68.0059L179.656 68.4531L180.551 68.9003C181.412 67.1779 181.797 64.8256 181.797 61.9375H180.797ZM179.656 68.4531L178.763 68.0032C177.583 70.3469 175.36 71.6094 171.75 71.6094V72.6094V73.6094C175.89 73.6094 178.938 72.101 180.549 68.903L179.656 68.4531ZM171.75 72.6094V71.6094C168.14 71.6094 165.924 70.347 164.754 68.0059L163.859 68.4531L162.965 68.9003C164.565 72.1009 167.61 73.6094 171.75 73.6094V72.6094ZM163.859 68.4531L164.754 68.0059C164.094 66.6867 163.719 64.6952 163.719 61.9375H162.719H161.719C161.719 64.8256 162.104 67.1779 162.965 68.9003L163.859 68.4531ZM162.719 61.9375H163.719V49.0469H162.719H161.719V61.9375H162.719ZM162.719 49.0469V50.0469H165.875V49.0469V48.0469H162.719V49.0469ZM202.328 49.0469H203.328V48.0469H202.328V49.0469ZM202.328 51.7812V52.7812H203.328V51.7812H202.328ZM194.594 51.7812V50.7812H193.594V51.7812H194.594ZM194.594 72V73H195.594V72H194.594ZM191.438 72H190.438V73H191.438V72ZM191.438 51.7812H192.438V50.7812H191.438V51.7812ZM183.703 51.7812H182.703V52.7812H183.703V51.7812ZM183.703 49.0469V48.0469H182.703V49.0469H183.703ZM202.328 49.0469H201.328V51.7812H202.328H203.328V49.0469H202.328ZM202.328 51.7812V50.7812H194.594V51.7812V52.7812H202.328V51.7812ZM194.594 51.7812H193.594V72H194.594H195.594V51.7812H194.594ZM194.594 72V71H191.438V72V73H194.594V72ZM191.438 72H192.438V51.7812H191.438H190.438V72H191.438ZM191.438 51.7812V50.7812H183.703V51.7812V52.7812H191.438V51.7812ZM183.703 51.7812H184.703V49.0469H183.703H182.703V51.7812H183.703ZM183.703 49.0469V50.0469H202.328V49.0469V48.0469H183.703V49.0469ZM205.891 49.0469V48.0469H204.891V49.0469H205.891ZM209.031 49.0469H210.031V48.0469H209.031V49.0469ZM209.031 72V73H210.031V72H209.031ZM205.891 72H204.891V73H205.891V72ZM205.891 49.0469V50.0469H209.031V49.0469V48.0469H205.891V49.0469ZM209.031 49.0469H208.031V72H209.031H210.031V49.0469H209.031ZM209.031 72V71H205.891V72V73H209.031V72ZM205.891 72H206.891V49.0469H205.891H204.891V72H205.891ZM233 52.3281L232.199 52.9271L232.2 52.9275L233 52.3281ZM232.672 68.6719L231.878 68.0637L231.878 68.064L232.672 68.6719ZM215.609 69.1719L214.829 69.797L214.841 69.812L214.853 69.8265L215.609 69.1719ZM215.219 52.6719L214.399 52.0992L214.399 52.0995L215.219 52.6719ZM230.25 66.9531L229.402 66.4235L229.401 66.4248L230.25 66.9531ZM229.969 53.6562L229.208 54.3059L229.211 54.3086L229.969 53.6562ZM218.375 53.6406L219.11 54.3189L219.112 54.3166L218.375 53.6406ZM218.047 67.2812L217.24 67.872L217.244 67.8774L218.047 67.2812ZM224 48.4219V49.4219C227.823 49.4219 230.486 50.6372 232.199 52.9271L233 52.3281L233.801 51.7292C231.618 48.8108 228.281 47.4219 224 47.4219V48.4219ZM233 52.3281L232.2 52.9275C233.562 54.7467 234.281 57.12 234.281 60.125H235.281H236.281C236.281 56.7966 235.48 53.972 233.8 51.7288L233 52.3281ZM235.281 60.125H234.281C234.281 63.3771 233.459 66 231.878 68.0637L232.672 68.6719L233.466 69.28C235.364 66.802 236.281 63.727 236.281 60.125H235.281ZM232.672 68.6719L231.878 68.064C230.051 70.45 227.452 71.6719 223.938 71.6719V72.6719V73.6719C227.985 73.6719 231.209 72.2271 233.466 69.2798L232.672 68.6719ZM223.938 72.6719V71.6719C220.65 71.6719 218.168 70.5984 216.365 68.5172L215.609 69.1719L214.853 69.8265C217.093 72.412 220.163 73.6719 223.938 73.6719V72.6719ZM215.609 69.1719L216.39 68.5467C214.756 66.5066 213.906 63.8963 213.906 60.6406H212.906H211.906C211.906 64.2599 212.859 67.3371 214.829 69.797L215.609 69.1719ZM212.906 60.6406H213.906C213.906 57.7089 214.631 55.2601 216.039 53.2443L215.219 52.6719L214.399 52.0995C212.723 54.5003 211.906 57.364 211.906 60.6406H212.906ZM215.219 52.6719L216.039 53.2445C217.806 50.7146 220.406 49.4219 224 49.4219V48.4219V47.4219C219.844 47.4219 216.59 48.9624 214.399 52.0992L215.219 52.6719ZM224.312 69.8906V70.8906C227.322 70.8906 229.661 69.7922 231.099 67.4815L230.25 66.9531L229.401 66.4248C228.402 68.0308 226.782 68.8906 224.312 68.8906V69.8906ZM230.25 66.9531L231.098 67.4827C232.436 65.3395 233.094 62.8919 233.094 60.1719H232.094H231.094C231.094 62.556 230.522 64.6292 229.402 66.4235L230.25 66.9531ZM232.094 60.1719H233.094C233.094 57.2946 232.335 54.872 230.727 53.0039L229.969 53.6562L229.211 54.3086C230.436 55.7321 231.094 57.6533 231.094 60.1719H232.094ZM229.969 53.6562L230.729 53.0066C229.107 51.1079 226.885 50.1875 224.188 50.1875V51.1875V52.1875C226.386 52.1875 228.018 52.913 229.208 54.3059L229.969 53.6562ZM224.188 51.1875V50.1875C221.554 50.1875 219.342 51.107 217.638 52.9647L218.375 53.6406L219.112 54.3166C220.408 52.9034 222.071 52.1875 224.188 52.1875V51.1875ZM218.375 53.6406L217.64 52.9623C215.908 54.839 215.125 57.5243 215.125 60.8438H216.125H217.125C217.125 57.809 217.842 55.6922 219.11 54.3189L218.375 53.6406ZM216.125 60.8438H215.125C215.125 63.5601 215.813 65.9225 217.24 67.872L218.047 67.2812L218.854 66.6905C217.719 65.14 217.125 63.2107 217.125 60.8438H216.125ZM218.047 67.2812L217.244 67.8774C218.783 69.9505 221.225 70.8906 224.312 70.8906V69.8906V68.8906C221.629 68.8906 219.894 68.0912 218.85 66.6851L218.047 67.2812ZM239 49.0469V48.0469H238V49.0469H239ZM242.672 49.0469L243.52 48.5178L243.227 48.0469H242.672V49.0469ZM254.266 67.6406L253.417 68.1697L255.266 71.1344V67.6406H254.266ZM254.266 49.0469V48.0469H253.266V49.0469H254.266ZM257.219 49.0469H258.219V48.0469H257.219V49.0469ZM257.219 72V73H258.219V72H257.219ZM253.734 72L252.89 72.535L253.184 73H253.734V72ZM241.969 53.4219L242.814 52.8868L240.969 49.9738V53.4219H241.969ZM241.969 72V73H242.969V72H241.969ZM239 72H238V73H239V72ZM239 49.0469V50.0469H242.672V49.0469V48.0469H239V49.0469ZM242.672 49.0469L241.823 49.576L253.417 68.1697L254.266 67.6406L255.114 67.1115L243.52 48.5178L242.672 49.0469ZM254.266 67.6406H255.266V49.0469H254.266H253.266V67.6406H254.266ZM254.266 49.0469V50.0469H257.219V49.0469V48.0469H254.266V49.0469ZM257.219 49.0469H256.219V72H257.219H258.219V49.0469H257.219ZM257.219 72V71H253.734V72V73H257.219V72ZM253.734 72L254.579 71.465L242.814 52.8868L241.969 53.4219L241.124 53.9569L252.89 72.535L253.734 72ZM241.969 53.4219H240.969V72H241.969H242.969V53.4219H241.969ZM241.969 72V71H239V72V73H241.969V72ZM239 72H240V49.0469H239H238V72H239ZM264.156 64.5938L265.155 64.5378L265.102 63.5938H264.156V64.5938ZM265.078 67.7656L264.246 68.3203L264.25 68.3268L265.078 67.7656ZM273.719 69.5469L274.047 70.4914L274.048 70.4912L273.719 69.5469ZM275.328 63.4062L275.89 62.5793L275.884 62.575L275.878 62.5708L275.328 63.4062ZM271.609 62.0469L271.832 61.072L271.83 61.0715L271.609 62.0469ZM268.5 61.3438L268.721 60.3684L268.72 60.3683L268.5 61.3438ZM264.188 59.8281L263.638 60.6638L263.64 60.6649L264.188 59.8281ZM276.328 50.2188L275.757 51.0397L275.763 51.0437L276.328 50.2188ZM278.859 55.7812V56.7812H279.859V55.7812H278.859ZM275.938 55.7812L274.945 55.9074L275.057 56.7812H275.938V55.7812ZM274.938 52.9531L275.727 52.3392L275.722 52.3326L274.938 52.9531ZM266.359 57.4688L265.874 58.343L265.883 58.3478L266.359 57.4688ZM270.531 58.7188L270.306 59.6931L270.309 59.6937L270.531 58.7188ZM273.75 59.4531L273.972 58.4782L273.972 58.4782L273.75 59.4531ZM277.344 60.9062L277.936 60.1007L277.933 60.0979L277.344 60.9062ZM276.75 71.0312L276.242 70.1699L276.24 70.1712L276.75 71.0312ZM263.609 70.4844L264.28 69.7423L264.277 69.7399L263.609 70.4844ZM261.234 64.5938V63.5938H260.247L260.234 64.5811L261.234 64.5938ZM264.156 64.5938L263.158 64.6497C263.237 66.072 263.578 67.3176 264.246 68.3203L265.078 67.7656L265.91 67.2109C265.495 66.5886 265.221 65.7196 265.155 64.5378L264.156 64.5938ZM265.078 67.7656L264.25 68.3268C265.538 70.2261 267.745 71.0469 270.531 71.0469V70.0469V69.0469C268.109 69.0469 266.68 68.3468 265.906 67.2044L265.078 67.7656ZM270.531 70.0469V71.0469C271.793 71.0469 272.969 70.8665 274.047 70.4914L273.719 69.5469L273.39 68.6024C272.552 68.8939 271.603 69.0469 270.531 69.0469V70.0469ZM273.719 69.5469L274.048 70.4912C275.096 70.1261 275.971 69.5859 276.585 68.8209C277.208 68.0432 277.5 67.1089 277.5 66.0781H276.5H275.5C275.5 66.714 275.328 67.1911 275.025 67.5698C274.711 67.9609 274.196 68.3218 273.39 68.6025L273.719 69.5469ZM276.5 66.0781H277.5C277.5 64.6155 277.031 63.3547 275.89 62.5793L275.328 63.4062L274.766 64.2332C275.188 64.5203 275.5 65.0408 275.5 66.0781H276.5ZM275.328 63.4062L275.878 62.5708C274.935 61.9508 273.556 61.4658 271.832 61.072L271.609 62.0469L271.387 63.0218C273.038 63.3988 274.138 63.82 274.779 64.2417L275.328 63.4062ZM271.609 62.0469L271.83 61.0715L268.721 60.3684L268.5 61.3438L268.279 62.3191L271.389 63.0222L271.609 62.0469ZM268.5 61.3438L268.72 60.3683C266.708 59.9143 265.42 59.4396 264.735 58.9913L264.188 59.8281L263.64 60.6649C264.642 61.3208 266.229 61.8565 268.28 62.3192L268.5 61.3438ZM264.188 59.8281L264.737 58.9924C263.589 58.2384 263 57.1377 263 55.5312H262H261C261 57.7373 261.869 59.5012 263.638 60.6638L264.188 59.8281ZM262 55.5312H263C263 53.7284 263.611 52.3078 264.82 51.1865L264.141 50.4531L263.461 49.7198C261.816 51.2443 261 53.2091 261 55.5312H262ZM264.141 50.4531L264.82 51.1865C266.007 50.0868 267.752 49.4688 270.203 49.4688V48.4688V47.4688C267.425 47.4688 265.129 48.1736 263.461 49.7198L264.141 50.4531ZM270.203 48.4688V49.4688C272.442 49.4688 274.276 50.0092 275.757 51.0397L276.328 50.2188L276.899 49.3978C275.026 48.095 272.776 47.4688 270.203 47.4688V48.4688ZM276.328 50.2188L275.763 51.0437C277.11 51.9668 277.859 53.4669 277.859 55.7812H278.859H279.859C279.859 52.9915 278.921 50.7832 276.893 49.3938L276.328 50.2188ZM278.859 55.7812V54.7812H275.938V55.7812V56.7812H278.859V55.7812ZM275.938 55.7812L276.93 55.6551C276.761 54.3292 276.389 53.1899 275.727 52.3392L274.938 52.9531L274.148 53.5671C274.507 54.0288 274.802 54.7749 274.945 55.9074L275.938 55.7812ZM274.938 52.9531L275.722 52.3326C274.506 50.7962 272.533 50.1562 270.109 50.1562V51.1562V52.1562C272.228 52.1562 273.473 52.7142 274.153 53.5737L274.938 52.9531ZM270.109 51.1562V50.1562C268.176 50.1562 266.541 50.5559 265.463 51.5915L266.156 52.3125L266.849 53.0335C267.376 52.5274 268.376 52.1562 270.109 52.1562V51.1562ZM266.156 52.3125L265.463 51.5915C264.485 52.5321 263.953 53.6811 263.953 55H264.953H265.953C265.953 54.2772 266.224 53.6346 266.849 53.0335L266.156 52.3125ZM264.953 55H263.953C263.953 55.7034 264.101 56.3675 264.436 56.9559C264.772 57.5467 265.267 58.0056 265.874 58.3429L266.359 57.4688L266.845 56.5946C266.515 56.4111 266.306 56.1981 266.174 55.966C266.04 55.7314 265.953 55.4216 265.953 55H264.953ZM266.359 57.4688L265.883 58.3478C266.638 58.7577 268.169 59.1998 270.306 59.6931L270.531 58.7188L270.756 57.7444C268.56 57.2377 267.31 56.8465 266.836 56.5897L266.359 57.4688ZM270.531 58.7188L270.309 59.6937L273.528 60.4281L273.75 59.4531L273.972 58.4782L270.754 57.7438L270.531 58.7188ZM273.75 59.4531L273.528 60.4281C275.01 60.7663 276.063 61.2104 276.755 61.7146L277.344 60.9062L277.933 60.0979C276.937 59.3729 275.594 58.8482 273.972 58.4782L273.75 59.4531ZM277.344 60.9062L276.751 61.7117C277.918 62.5702 278.531 63.8078 278.531 65.5781H279.531H280.531C280.531 63.2651 279.686 61.3882 277.936 60.1008L277.344 60.9062ZM279.531 65.5781H278.531C278.531 67.8414 277.731 69.2914 276.242 70.1699L276.75 71.0312L277.258 71.8926C279.477 70.5836 280.531 68.3981 280.531 65.5781H279.531ZM276.75 71.0312L276.24 70.1712C274.571 71.1609 272.607 71.6719 270.312 71.6719V72.6719V73.6719C272.914 73.6719 275.241 73.0891 277.26 71.8913L276.75 71.0312ZM270.312 72.6719V71.6719C267.627 71.6719 265.659 70.9883 264.28 69.7423L263.609 70.4844L262.939 71.2265C264.789 72.8971 267.29 73.6719 270.312 73.6719V72.6719ZM263.609 70.4844L264.277 69.7399C262.909 68.5132 262.206 66.8429 262.234 64.6064L261.234 64.5938L260.234 64.5811C260.2 67.3029 261.08 69.5597 262.942 71.2289L263.609 70.4844ZM261.234 64.5938V65.5938H264.156V64.5938V63.5938H261.234V64.5938Z" fill="black" mask="url(#path-3-outside-1_0_1)"/>
<defs>
<radialGradient id="paint0_radial_0_1" cx="0" cy="0" r="1" gradientUnits="userSpaceOnUse" gradientTransform="translate(186 127) rotate(87.4996) scale(114.609 319.567)">
<stop stop-color="#34576B"/>
<stop offset="1"/>
</radialGradient>
</defs>
</svg>
