<svg width="382" height="137" viewBox="0 0 382 137" fill="none" xmlns="http://www.w3.org/2000/svg">
<path d="M10 0.5H372C377.247 0.5 381.5 4.75329 381.5 10V127C381.5 132.247 377.247 136.5 372 136.5H10C4.7533 136.5 0.5 132.247 0.5 127V10C0.5 4.7533 4.75329 0.5 10 0.5Z" fill="url(#paint0_radial_522_35)" stroke="#303030"/>
<path d="M191.784 94.5C258.017 94.5 318.736 109.744 366.033 135.091L14.9521 136.492C62.6123 110.307 124.339 94.5 191.784 94.5Z" fill="black" stroke="black"/>
<path d="M110.734 46.0469H126.656V48.8594H113.844V55.8281H125.109V58.5625H113.844V69H110.734V46.0469ZM130.297 46.0469H147.031V48.8594H133.328V55.8281H146V58.4844H133.328V66.2656H147.266V69H130.297V46.0469ZM163.125 59.5938L159.641 49.4531L155.938 59.5938H163.125ZM158.016 46.0469H161.531L169.859 69H166.453L164.125 62.125H155.047L152.562 69H149.375L158.016 46.0469ZM187.016 46.0469V48.7812H179.281V69H176.125V48.7812H168.391V46.0469H187.016ZM193.25 46.0469V60.2344C193.25 61.901 193.562 63.2865 194.188 64.3906C195.115 66.0573 196.677 66.8906 198.875 66.8906C201.51 66.8906 203.302 65.9896 204.25 64.1875C204.76 63.2083 205.016 61.8906 205.016 60.2344V46.0469H208.172V58.9375C208.172 61.7604 207.792 63.9323 207.031 65.4531C205.635 68.224 203 69.6094 199.125 69.6094C195.25 69.6094 192.62 68.224 191.234 65.4531C190.474 63.9323 190.094 61.7604 190.094 58.9375V46.0469H193.25ZM223.672 56.5625C225.13 56.5625 226.281 56.2708 227.125 55.6875C227.979 55.1042 228.406 54.0521 228.406 52.5312C228.406 50.8958 227.812 49.7812 226.625 49.1875C225.99 48.875 225.141 48.7188 224.078 48.7188H216.484V56.5625H223.672ZM213.375 46.0469H224C225.75 46.0469 227.193 46.3021 228.328 46.8125C230.484 47.7917 231.562 49.599 231.562 52.2344C231.562 53.6094 231.276 54.7344 230.703 55.6094C230.141 56.4844 229.349 57.1875 228.328 57.7188C229.224 58.0833 229.896 58.5625 230.344 59.1562C230.802 59.75 231.057 60.7135 231.109 62.0469L231.219 65.125C231.25 66 231.323 66.651 231.438 67.0781C231.625 67.8073 231.958 68.276 232.438 68.4844V69H228.625C228.521 68.8021 228.438 68.5469 228.375 68.2344C228.312 67.9219 228.26 67.3177 228.219 66.4219L228.031 62.5938C227.958 61.0938 227.401 60.0885 226.359 59.5781C225.766 59.2969 224.833 59.1562 223.562 59.1562H216.484V69H213.375V46.0469ZM236.422 46.0469H253.156V48.8594H239.453V55.8281H252.125V58.4844H239.453V66.2656H253.391V69H236.422V46.0469ZM259.5 61.5938C259.573 62.8958 259.88 63.9531 260.422 64.7656C261.453 66.2865 263.271 67.0469 265.875 67.0469C267.042 67.0469 268.104 66.8802 269.062 66.5469C270.917 65.901 271.844 64.7448 271.844 63.0781C271.844 61.8281 271.453 60.9375 270.672 60.4062C269.88 59.8854 268.641 59.4323 266.953 59.0469L263.844 58.3438C261.812 57.8854 260.375 57.3802 259.531 56.8281C258.073 55.8698 257.344 54.4375 257.344 52.5312C257.344 50.4688 258.057 48.776 259.484 47.4531C260.911 46.1302 262.932 45.4688 265.547 45.4688C267.953 45.4688 269.995 46.0521 271.672 47.2188C273.359 48.375 274.203 50.2292 274.203 52.7812H271.281C271.125 51.5521 270.792 50.6094 270.281 49.9531C269.333 48.7552 267.724 48.1562 265.453 48.1562C263.62 48.1562 262.302 48.5417 261.5 49.3125C260.698 50.0833 260.297 50.9792 260.297 52C260.297 53.125 260.766 53.9479 261.703 54.4688C262.318 54.8021 263.708 55.2188 265.875 55.7188L269.094 56.4531C270.646 56.8073 271.844 57.2917 272.688 57.9062C274.146 58.9792 274.875 60.5365 274.875 62.5781C274.875 65.1198 273.948 66.9375 272.094 68.0312C270.25 69.125 268.104 69.6719 265.656 69.6719C262.802 69.6719 260.568 68.9427 258.953 67.4844C257.339 66.0365 256.547 64.0729 256.578 61.5938H259.5Z" fill="#C2C2C2"/>
<defs>
<radialGradient id="paint0_radial_522_35" cx="0" cy="0" r="1" gradientUnits="userSpaceOnUse" gradientTransform="translate(186 127) rotate(90.4658) scale(123.004 342.975)">
<stop stop-color="#3B7B40"/>
<stop offset="1"/>
</radialGradient>
</defs>
</svg>
