<svg width="382" height="137" viewBox="0 0 382 137" fill="none" xmlns="http://www.w3.org/2000/svg">
<path d="M10 0.5H372C377.247 0.5 381.5 4.75329 381.5 10V127C381.5 132.247 377.247 136.5 372 136.5H10C4.7533 136.5 0.5 132.247 0.5 127V10C0.5 4.7533 4.75329 0.5 10 0.5Z" fill="url(#paint0_radial_522_40)" stroke="#303030"/>
<path d="M191.784 94.5C258.017 94.5 318.736 109.744 366.033 135.091L14.9521 136.492C62.6123 110.307 124.339 94.5 191.784 94.5Z" fill="black" stroke="black"/>
<path d="M155.219 59.5938L151.734 49.4531L148.031 59.5938H155.219ZM150.109 46.0469H153.625L161.953 69H158.547L156.219 62.125H147.141L144.656 69H141.469L150.109 46.0469ZM173.406 55.75C174.719 55.75 175.74 55.5677 176.469 55.2031C177.615 54.6302 178.188 53.599 178.188 52.1094C178.188 50.6094 177.578 49.599 176.359 49.0781C175.672 48.7865 174.651 48.6406 173.297 48.6406H167.75V55.75H173.406ZM174.453 66.3438C176.359 66.3438 177.719 65.7917 178.531 64.6875C179.042 63.9896 179.297 63.1458 179.297 62.1562C179.297 60.4896 178.552 59.3542 177.062 58.75C176.271 58.4271 175.224 58.2656 173.922 58.2656H167.75V66.3438H174.453ZM164.703 46.0469H174.562C177.25 46.0469 179.161 46.849 180.297 48.4531C180.964 49.401 181.297 50.4948 181.297 51.7344C181.297 53.1823 180.885 54.3698 180.062 55.2969C179.635 55.7865 179.021 56.2344 178.219 56.6406C179.396 57.0885 180.276 57.5938 180.859 58.1562C181.891 59.1562 182.406 60.5365 182.406 62.2969C182.406 63.776 181.943 65.1146 181.016 66.3125C179.63 68.1042 177.427 69 174.406 69H164.703V46.0469ZM196.031 45.4219C200.083 45.4219 203.083 46.724 205.031 49.3281C206.552 51.3594 207.312 53.9583 207.312 57.125C207.312 60.5521 206.443 63.401 204.703 65.6719C202.661 68.3385 199.75 69.6719 195.969 69.6719C192.438 69.6719 189.661 68.5052 187.641 66.1719C185.839 63.9219 184.938 61.0781 184.938 57.6406C184.938 54.5365 185.708 51.8802 187.25 49.6719C189.229 46.8385 192.156 45.4219 196.031 45.4219ZM196.344 66.8906C199.083 66.8906 201.062 65.9115 202.281 63.9531C203.51 61.9844 204.125 59.724 204.125 57.1719C204.125 54.474 203.417 52.3021 202 50.6562C200.594 49.0104 198.667 48.1875 196.219 48.1875C193.844 48.1875 191.906 49.0052 190.406 50.6406C188.906 52.2656 188.156 54.6667 188.156 57.8438C188.156 60.3854 188.797 62.5312 190.078 64.2812C191.37 66.0208 193.458 66.8906 196.344 66.8906ZM214.406 46.0469V60.2344C214.406 61.901 214.719 63.2865 215.344 64.3906C216.271 66.0573 217.833 66.8906 220.031 66.8906C222.667 66.8906 224.458 65.9896 225.406 64.1875C225.917 63.2083 226.172 61.8906 226.172 60.2344V46.0469H229.328V58.9375C229.328 61.7604 228.948 63.9323 228.188 65.4531C226.792 68.224 224.156 69.6094 220.281 69.6094C216.406 69.6094 213.776 68.224 212.391 65.4531C211.63 63.9323 211.25 61.7604 211.25 58.9375V46.0469H214.406ZM250.859 46.0469V48.7812H243.125V69H239.969V48.7812H232.234V46.0469H250.859Z" fill="#C2C2C2"/>
<defs>
<radialGradient id="paint0_radial_522_40" cx="0" cy="0" r="1" gradientUnits="userSpaceOnUse" gradientTransform="translate(186 127) rotate(90.4658) scale(123.004 342.975)">
<stop stop-color="#773B7B"/>
<stop offset="1"/>
</radialGradient>
</defs>
</svg>
