<svg width="382" height="137" viewBox="0 0 382 137" fill="none" xmlns="http://www.w3.org/2000/svg">
<path d="M10 0.5H372C377.247 0.5 381.5 4.75329 381.5 10V127C381.5 132.247 377.247 136.5 372 136.5H10C4.7533 136.5 0.5 132.247 0.5 127V10C0.5 4.7533 4.75329 0.5 10 0.5Z" fill="url(#paint0_radial_522_45)" stroke="#303030"/>
<path d="M191.784 94.5C258.017 94.5 318.736 109.744 366.033 135.091L14.9521 136.492C62.6123 110.307 124.339 94.5 191.784 94.5Z" fill="black" stroke="black"/>
<path d="M138.109 45.4219C141.016 45.4219 143.271 46.1875 144.875 47.7188C146.479 49.25 147.37 50.9896 147.547 52.9375H144.516C144.172 51.4583 143.484 50.2865 142.453 49.4219C141.432 48.5573 139.995 48.125 138.141 48.125C135.88 48.125 134.052 48.9219 132.656 50.5156C131.271 52.099 130.578 54.5312 130.578 57.8125C130.578 60.5 131.203 62.6823 132.453 64.3594C133.714 66.026 135.589 66.8594 138.078 66.8594C140.37 66.8594 142.115 65.9792 143.312 64.2188C143.948 63.2917 144.422 62.0729 144.734 60.5625H147.766C147.495 62.9792 146.599 65.0052 145.078 66.6406C143.255 68.6094 140.797 69.5938 137.703 69.5938C135.036 69.5938 132.797 68.7865 130.984 67.1719C128.599 65.0365 127.406 61.7396 127.406 57.2812C127.406 53.8958 128.302 51.1198 130.094 48.9531C132.031 46.599 134.703 45.4219 138.109 45.4219ZM163.344 59.5938L159.859 49.4531L156.156 59.5938H163.344ZM158.234 46.0469H161.75L170.078 69H166.672L164.344 62.125H155.266L152.781 69H149.594L158.234 46.0469ZM183.578 56.5625C185.036 56.5625 186.188 56.2708 187.031 55.6875C187.885 55.1042 188.312 54.0521 188.312 52.5312C188.312 50.8958 187.719 49.7812 186.531 49.1875C185.896 48.875 185.047 48.7188 183.984 48.7188H176.391V56.5625H183.578ZM173.281 46.0469H183.906C185.656 46.0469 187.099 46.3021 188.234 46.8125C190.391 47.7917 191.469 49.599 191.469 52.2344C191.469 53.6094 191.182 54.7344 190.609 55.6094C190.047 56.4844 189.255 57.1875 188.234 57.7188C189.13 58.0833 189.802 58.5625 190.25 59.1562C190.708 59.75 190.964 60.7135 191.016 62.0469L191.125 65.125C191.156 66 191.229 66.651 191.344 67.0781C191.531 67.8073 191.865 68.276 192.344 68.4844V69H188.531C188.427 68.8021 188.344 68.5469 188.281 68.2344C188.219 67.9219 188.167 67.3177 188.125 66.4219L187.938 62.5938C187.865 61.0938 187.307 60.0885 186.266 59.5781C185.672 59.2969 184.74 59.1562 183.469 59.1562H176.391V69H173.281V46.0469ZM196.328 46.0469H213.062V48.8594H199.359V55.8281H212.031V58.4844H199.359V66.2656H213.297V69H196.328V46.0469ZM217.672 46.0469H234.406V48.8594H220.703V55.8281H233.375V58.4844H220.703V66.2656H234.641V69H217.672V46.0469ZM249.391 56.5625C250.849 56.5625 252 56.2708 252.844 55.6875C253.698 55.1042 254.125 54.0521 254.125 52.5312C254.125 50.8958 253.531 49.7812 252.344 49.1875C251.708 48.875 250.859 48.7188 249.797 48.7188H242.203V56.5625H249.391ZM239.094 46.0469H249.719C251.469 46.0469 252.911 46.3021 254.047 46.8125C256.203 47.7917 257.281 49.599 257.281 52.2344C257.281 53.6094 256.995 54.7344 256.422 55.6094C255.859 56.4844 255.068 57.1875 254.047 57.7188C254.943 58.0833 255.615 58.5625 256.062 59.1562C256.521 59.75 256.776 60.7135 256.828 62.0469L256.938 65.125C256.969 66 257.042 66.651 257.156 67.0781C257.344 67.8073 257.677 68.276 258.156 68.4844V69H254.344C254.24 68.8021 254.156 68.5469 254.094 68.2344C254.031 67.9219 253.979 67.3177 253.938 66.4219L253.75 62.5938C253.677 61.0938 253.12 60.0885 252.078 59.5781C251.484 59.2969 250.552 59.1562 249.281 59.1562H242.203V69H239.094V46.0469Z" fill="#C2C2C2"/>
<defs>
<radialGradient id="paint0_radial_522_45" cx="0" cy="0" r="1" gradientUnits="userSpaceOnUse" gradientTransform="translate(186 127) rotate(90.4658) scale(123.004 342.975)">
<stop stop-color="#7B3B3B"/>
<stop offset="1"/>
</radialGradient>
</defs>
</svg>
