<svg width="382" height="137" viewBox="0 0 382 137" fill="none" xmlns="http://www.w3.org/2000/svg">
<rect width="382" height="137" fill="#1E1E1E"/>
<path d="M10 0.5H372C377.247 0.5 381.5 4.75329 381.5 10V127C381.5 132.247 377.247 136.5 372 136.5H10C4.7533 136.5 0.5 132.247 0.5 127V10C0.5 4.7533 4.75329 0.5 10 0.5Z" fill="url(#paint0_radial_0_1)" stroke="#303030"/>
<path d="M196.784 93.5C263.017 93.5 323.736 108.744 371.033 134.091L19.9521 135.492C67.6123 109.307 129.339 93.5 196.784 93.5Z" fill="black" stroke="black"/>
<path d="M113.109 57.5625C114.568 57.5625 115.719 57.2708 116.562 56.6875C117.417 56.1042 117.844 55.0521 117.844 53.5312C117.844 51.8958 117.25 50.7812 116.062 50.1875C115.427 49.875 114.578 49.7188 113.516 49.7188H105.922V57.5625H113.109ZM102.812 47.0469H113.438C115.188 47.0469 116.63 47.3021 117.766 47.8125C119.922 48.7917 121 50.599 121 53.2344C121 54.6094 120.714 55.7344 120.141 56.6094C119.578 57.4844 118.786 58.1875 117.766 58.7188C118.661 59.0833 119.333 59.5625 119.781 60.1562C120.24 60.75 120.495 61.7135 120.547 63.0469L120.656 66.125C120.688 67 120.76 67.651 120.875 68.0781C121.062 68.8073 121.396 69.276 121.875 69.4844V70H118.062C117.958 69.8021 117.875 69.5469 117.812 69.2344C117.75 68.9219 117.698 68.3177 117.656 67.4219L117.469 63.5938C117.396 62.0938 116.839 61.0885 115.797 60.5781C115.203 60.2969 114.271 60.1562 113 60.1562H105.922V70H102.812V47.0469ZM132.156 52.8906C133.344 52.8906 134.495 53.1719 135.609 53.7344C136.724 54.2865 137.573 55.0052 138.156 55.8906C138.719 56.7344 139.094 57.7188 139.281 58.8438C139.448 59.6146 139.531 60.8438 139.531 62.5312H127.266C127.318 64.2292 127.719 65.5938 128.469 66.625C129.219 67.6458 130.38 68.1562 131.953 68.1562C133.422 68.1562 134.594 67.6719 135.469 66.7031C135.969 66.1406 136.323 65.4896 136.531 64.75H139.297C139.224 65.3646 138.979 66.0521 138.562 66.8125C138.156 67.5625 137.698 68.1771 137.188 68.6562C136.333 69.4896 135.276 70.0521 134.016 70.3438C133.339 70.5104 132.573 70.5938 131.719 70.5938C129.635 70.5938 127.87 69.8385 126.422 68.3281C124.974 66.8073 124.25 64.6823 124.25 61.9531C124.25 59.2656 124.979 57.0833 126.438 55.4062C127.896 53.7292 129.802 52.8906 132.156 52.8906ZM136.641 60.2969C136.526 59.0781 136.26 58.1042 135.844 57.375C135.073 56.0208 133.786 55.3438 131.984 55.3438C130.693 55.3438 129.609 55.8125 128.734 56.75C127.859 57.6771 127.396 58.8594 127.344 60.2969H136.641ZM143.562 48.5938H146.406V53.2656H149.078V55.5625H146.406V66.4844C146.406 67.0677 146.604 67.4583 147 67.6562C147.219 67.7708 147.583 67.8281 148.094 67.8281C148.229 67.8281 148.375 67.8281 148.531 67.8281C148.688 67.8177 148.87 67.8021 149.078 67.7812V70C148.755 70.0938 148.417 70.1615 148.062 70.2031C147.719 70.2448 147.344 70.2656 146.938 70.2656C145.625 70.2656 144.734 69.9323 144.266 69.2656C143.797 68.5885 143.562 67.7135 143.562 66.6406V55.5625H141.297V53.2656H143.562V48.5938ZM154.062 65.5469C154.062 66.3594 154.359 67 154.953 67.4688C155.547 67.9375 156.25 68.1719 157.062 68.1719C158.052 68.1719 159.01 67.9427 159.938 67.4844C161.5 66.724 162.281 65.4792 162.281 63.75V61.4844C161.938 61.7031 161.495 61.8854 160.953 62.0312C160.411 62.1771 159.88 62.2812 159.359 62.3438L157.656 62.5625C156.635 62.6979 155.87 62.9115 155.359 63.2031C154.495 63.6927 154.062 64.474 154.062 65.5469ZM160.875 59.8594C161.521 59.776 161.953 59.5052 162.172 59.0469C162.297 58.7969 162.359 58.4375 162.359 57.9688C162.359 57.0104 162.016 56.3177 161.328 55.8906C160.651 55.4531 159.677 55.2344 158.406 55.2344C156.938 55.2344 155.896 55.6302 155.281 56.4219C154.938 56.8594 154.714 57.5104 154.609 58.375H151.984C152.036 56.3125 152.703 54.8802 153.984 54.0781C155.276 53.2656 156.771 52.8594 158.469 52.8594C160.438 52.8594 162.036 53.2344 163.266 53.9844C164.484 54.7344 165.094 55.901 165.094 57.4844V67.125C165.094 67.4167 165.151 67.651 165.266 67.8281C165.391 68.0052 165.646 68.0938 166.031 68.0938C166.156 68.0938 166.297 68.0885 166.453 68.0781C166.609 68.0573 166.776 68.0312 166.953 68V70.0781C166.516 70.2031 166.182 70.2812 165.953 70.3125C165.724 70.3438 165.411 70.3594 165.016 70.3594C164.047 70.3594 163.344 70.0156 162.906 69.3281C162.677 68.9635 162.516 68.4479 162.422 67.7812C161.849 68.5312 161.026 69.1823 159.953 69.7344C158.88 70.2865 157.698 70.5625 156.406 70.5625C154.854 70.5625 153.583 70.0938 152.594 69.1562C151.615 68.2083 151.125 67.026 151.125 65.6094C151.125 64.0573 151.609 62.8542 152.578 62C153.547 61.1458 154.818 60.6198 156.391 60.4219L160.875 59.8594ZM169.719 53.3438H172.578V70H169.719V53.3438ZM169.719 47.0469H172.578V50.2344H169.719V47.0469ZM176.922 47.0469H179.734V70H176.922V47.0469ZM203.922 57.5625C205.38 57.5625 206.531 57.2708 207.375 56.6875C208.229 56.1042 208.656 55.0521 208.656 53.5312C208.656 51.8958 208.062 50.7812 206.875 50.1875C206.24 49.875 205.391 49.7188 204.328 49.7188H196.734V57.5625H203.922ZM193.625 47.0469H204.25C206 47.0469 207.443 47.3021 208.578 47.8125C210.734 48.7917 211.812 50.599 211.812 53.2344C211.812 54.6094 211.526 55.7344 210.953 56.6094C210.391 57.4844 209.599 58.1875 208.578 58.7188C209.474 59.0833 210.146 59.5625 210.594 60.1562C211.052 60.75 211.307 61.7135 211.359 63.0469L211.469 66.125C211.5 67 211.573 67.651 211.688 68.0781C211.875 68.8073 212.208 69.276 212.688 69.4844V70H208.875C208.771 69.8021 208.688 69.5469 208.625 69.2344C208.562 68.9219 208.51 68.3177 208.469 67.4219L208.281 63.5938C208.208 62.0938 207.651 61.0885 206.609 60.5781C206.016 60.2969 205.083 60.1562 203.812 60.1562H196.734V70H193.625V47.0469ZM222.969 52.8906C224.156 52.8906 225.307 53.1719 226.422 53.7344C227.536 54.2865 228.385 55.0052 228.969 55.8906C229.531 56.7344 229.906 57.7188 230.094 58.8438C230.26 59.6146 230.344 60.8438 230.344 62.5312H218.078C218.13 64.2292 218.531 65.5938 219.281 66.625C220.031 67.6458 221.193 68.1562 222.766 68.1562C224.234 68.1562 225.406 67.6719 226.281 66.7031C226.781 66.1406 227.135 65.4896 227.344 64.75H230.109C230.036 65.3646 229.792 66.0521 229.375 66.8125C228.969 67.5625 228.51 68.1771 228 68.6562C227.146 69.4896 226.089 70.0521 224.828 70.3438C224.151 70.5104 223.385 70.5938 222.531 70.5938C220.448 70.5938 218.682 69.8385 217.234 68.3281C215.786 66.8073 215.062 64.6823 215.062 61.9531C215.062 59.2656 215.792 57.0833 217.25 55.4062C218.708 53.7292 220.615 52.8906 222.969 52.8906ZM227.453 60.2969C227.339 59.0781 227.073 58.1042 226.656 57.375C225.885 56.0208 224.599 55.3438 222.797 55.3438C221.505 55.3438 220.422 55.8125 219.547 56.75C218.672 57.6771 218.208 58.8594 218.156 60.2969H227.453ZM235.969 65.5469C235.969 66.3594 236.266 67 236.859 67.4688C237.453 67.9375 238.156 68.1719 238.969 68.1719C239.958 68.1719 240.917 67.9427 241.844 67.4844C243.406 66.724 244.188 65.4792 244.188 63.75V61.4844C243.844 61.7031 243.401 61.8854 242.859 62.0312C242.318 62.1771 241.786 62.2812 241.266 62.3438L239.562 62.5625C238.542 62.6979 237.776 62.9115 237.266 63.2031C236.401 63.6927 235.969 64.474 235.969 65.5469ZM242.781 59.8594C243.427 59.776 243.859 59.5052 244.078 59.0469C244.203 58.7969 244.266 58.4375 244.266 57.9688C244.266 57.0104 243.922 56.3177 243.234 55.8906C242.557 55.4531 241.583 55.2344 240.312 55.2344C238.844 55.2344 237.802 55.6302 237.188 56.4219C236.844 56.8594 236.62 57.5104 236.516 58.375H233.891C233.943 56.3125 234.609 54.8802 235.891 54.0781C237.182 53.2656 238.677 52.8594 240.375 52.8594C242.344 52.8594 243.943 53.2344 245.172 53.9844C246.391 54.7344 247 55.901 247 57.4844V67.125C247 67.4167 247.057 67.651 247.172 67.8281C247.297 68.0052 247.552 68.0938 247.938 68.0938C248.062 68.0938 248.203 68.0885 248.359 68.0781C248.516 68.0573 248.682 68.0312 248.859 68V70.0781C248.422 70.2031 248.089 70.2812 247.859 70.3125C247.63 70.3438 247.318 70.3594 246.922 70.3594C245.953 70.3594 245.25 70.0156 244.812 69.3281C244.583 68.9635 244.422 68.4479 244.328 67.7812C243.755 68.5312 242.932 69.1823 241.859 69.7344C240.786 70.2865 239.604 70.5625 238.312 70.5625C236.76 70.5625 235.49 70.0938 234.5 69.1562C233.521 68.2083 233.031 67.026 233.031 65.6094C233.031 64.0573 233.516 62.8542 234.484 62C235.453 61.1458 236.724 60.6198 238.297 60.4219L242.781 59.8594ZM253.406 61.8281C253.406 63.6198 253.786 65.1198 254.547 66.3281C255.307 67.5365 256.526 68.1406 258.203 68.1406C259.505 68.1406 260.573 67.5833 261.406 66.4688C262.25 65.3438 262.672 63.7344 262.672 61.6406C262.672 59.526 262.24 57.9635 261.375 56.9531C260.51 55.9323 259.443 55.4219 258.172 55.4219C256.755 55.4219 255.604 55.9635 254.719 57.0469C253.844 58.1302 253.406 59.724 253.406 61.8281ZM257.641 52.9688C258.922 52.9688 259.995 53.2396 260.859 53.7812C261.359 54.0938 261.927 54.6406 262.562 55.4219V46.9688H265.266V70H262.734V67.6719C262.078 68.7031 261.302 69.4479 260.406 69.9062C259.51 70.3646 258.484 70.5938 257.328 70.5938C255.464 70.5938 253.849 69.8125 252.484 68.25C251.12 66.6771 250.438 64.5885 250.438 61.9844C250.438 59.5469 251.057 57.4375 252.297 55.6562C253.547 53.8646 255.328 52.9688 257.641 52.9688ZM279.891 53.2656H283C282.604 54.3385 281.724 56.7865 280.359 60.6094C279.339 63.4844 278.484 65.8281 277.797 67.6406C276.172 71.9115 275.026 74.5156 274.359 75.4531C273.693 76.3906 272.547 76.8594 270.922 76.8594C270.526 76.8594 270.219 76.8438 270 76.8125C269.792 76.7812 269.531 76.724 269.219 76.6406V74.0781C269.708 74.2135 270.062 74.2969 270.281 74.3281C270.5 74.3594 270.693 74.375 270.859 74.375C271.38 74.375 271.76 74.2865 272 74.1094C272.25 73.9427 272.458 73.7344 272.625 73.4844C272.677 73.401 272.865 72.974 273.188 72.2031C273.51 71.4323 273.745 70.8594 273.891 70.4844L267.703 53.2656H270.891L275.375 66.8906L279.891 53.2656Z" fill="#C2C2C2"/>
<defs>
<radialGradient id="paint0_radial_0_1" cx="0" cy="0" r="1" gradientUnits="userSpaceOnUse" gradientTransform="translate(186 127) rotate(87.4996) scale(114.609 319.567)">
<stop stop-color="#34576B"/>
<stop offset="1"/>
</radialGradient>
</defs>
</svg>
