<svg width="382" height="137" viewBox="0 0 382 137" fill="none" xmlns="http://www.w3.org/2000/svg">
<path d="M10 0.5H372C377.247 0.5 381.5 4.75329 381.5 10V127C381.5 132.247 377.247 136.5 372 136.5H10C4.7533 136.5 0.5 132.247 0.5 127V10C0.5 4.7533 4.75329 0.5 10 0.5Z" fill="url(#paint0_radial_491_112)" fill-opacity="0.4" stroke="#303030"/>
<path d="M196.784 93.5C263.017 93.5 323.736 108.744 371.033 134.091L19.9521 135.492C67.6123 109.307 129.339 93.5 196.784 93.5Z" fill="black" stroke="black"/>
<path d="M107.219 59.5938L103.734 49.4531L100.031 59.5938H107.219ZM102.109 46.0469H105.625L113.953 69H110.547L108.219 62.125H99.1406L96.6562 69H93.4688L102.109 46.0469ZM117.484 46.0469H120.625V69H117.484V46.0469ZM143.406 66.3438C144.458 66.3438 145.323 66.2344 146 66.0156C147.208 65.6094 148.198 64.8281 148.969 63.6719C149.583 62.7448 150.026 61.5573 150.297 60.1094C150.453 59.2448 150.531 58.4427 150.531 57.7031C150.531 54.8594 149.964 52.651 148.828 51.0781C147.703 49.5052 145.885 48.7188 143.375 48.7188H137.859V66.3438H143.406ZM134.734 46.0469H144.031C147.188 46.0469 149.635 47.1667 151.375 49.4062C152.927 51.4271 153.703 54.0156 153.703 57.1719C153.703 59.6094 153.245 61.8125 152.328 63.7812C150.714 67.2604 147.938 69 144 69H134.734V46.0469ZM157.422 52.2656H160.094V55.1562C160.312 54.5938 160.849 53.9115 161.703 53.1094C162.557 52.2969 163.542 51.8906 164.656 51.8906C164.708 51.8906 164.797 51.8958 164.922 51.9062C165.047 51.9167 165.26 51.9375 165.562 51.9688V54.9375C165.396 54.9062 165.24 54.8854 165.094 54.875C164.958 54.8646 164.807 54.8594 164.641 54.8594C163.224 54.8594 162.135 55.3177 161.375 56.2344C160.615 57.1406 160.234 58.1875 160.234 59.375V69H157.422V52.2656ZM168 52.3438H170.859V69H168V52.3438ZM168 46.0469H170.859V49.2344H168V46.0469ZM176.5 52.2656L180.969 65.8906L185.641 52.2656H188.719L182.406 69H179.406L173.234 52.2656H176.5ZM198.094 51.8906C199.281 51.8906 200.432 52.1719 201.547 52.7344C202.661 53.2865 203.51 54.0052 204.094 54.8906C204.656 55.7344 205.031 56.7188 205.219 57.8438C205.385 58.6146 205.469 59.8438 205.469 61.5312H193.203C193.255 63.2292 193.656 64.5938 194.406 65.625C195.156 66.6458 196.318 67.1562 197.891 67.1562C199.359 67.1562 200.531 66.6719 201.406 65.7031C201.906 65.1406 202.26 64.4896 202.469 63.75H205.234C205.161 64.3646 204.917 65.0521 204.5 65.8125C204.094 66.5625 203.635 67.1771 203.125 67.6562C202.271 68.4896 201.214 69.0521 199.953 69.3438C199.276 69.5104 198.51 69.5938 197.656 69.5938C195.573 69.5938 193.807 68.8385 192.359 67.3281C190.911 65.8073 190.188 63.6823 190.188 60.9531C190.188 58.2656 190.917 56.0833 192.375 54.4062C193.833 52.7292 195.74 51.8906 198.094 51.8906ZM202.578 59.2969C202.464 58.0781 202.198 57.1042 201.781 56.375C201.01 55.0208 199.724 54.3438 197.922 54.3438C196.63 54.3438 195.547 54.8125 194.672 55.75C193.797 56.6771 193.333 57.8594 193.281 59.2969H202.578ZM208.938 52.2656H211.609V54.6406C212.401 53.6615 213.24 52.9583 214.125 52.5312C215.01 52.1042 215.995 51.8906 217.078 51.8906C219.453 51.8906 221.057 52.7188 221.891 54.375C222.349 55.2812 222.578 56.5781 222.578 58.2656V69H219.719V58.4531C219.719 57.4323 219.568 56.6094 219.266 55.9844C218.766 54.9427 217.859 54.4219 216.547 54.4219C215.88 54.4219 215.333 54.4896 214.906 54.625C214.135 54.8542 213.458 55.3125 212.875 56C212.406 56.5521 212.099 57.125 211.953 57.7188C211.818 58.3021 211.75 59.1406 211.75 60.2344V69H208.938V52.2656ZM245.938 45.4219C249.99 45.4219 252.99 46.724 254.938 49.3281C256.458 51.3594 257.219 53.9583 257.219 57.125C257.219 60.5521 256.349 63.401 254.609 65.6719C252.568 68.3385 249.656 69.6719 245.875 69.6719C242.344 69.6719 239.568 68.5052 237.547 66.1719C235.745 63.9219 234.844 61.0781 234.844 57.6406C234.844 54.5365 235.615 51.8802 237.156 49.6719C239.135 46.8385 242.062 45.4219 245.938 45.4219ZM246.25 66.8906C248.99 66.8906 250.969 65.9115 252.188 63.9531C253.417 61.9844 254.031 59.724 254.031 57.1719C254.031 54.474 253.323 52.3021 251.906 50.6562C250.5 49.0104 248.573 48.1875 246.125 48.1875C243.75 48.1875 241.812 49.0052 240.312 50.6406C238.812 52.2656 238.062 54.6667 238.062 57.8438C238.062 60.3854 238.703 62.5312 239.984 64.2812C241.276 66.0208 243.365 66.8906 246.25 66.8906ZM267.625 67.1094C268.938 67.1094 270.026 66.5625 270.891 65.4688C271.766 64.3646 272.203 62.7188 272.203 60.5312C272.203 59.1979 272.01 58.0521 271.625 57.0938C270.896 55.25 269.562 54.3281 267.625 54.3281C265.677 54.3281 264.344 55.3021 263.625 57.25C263.24 58.2917 263.047 59.6146 263.047 61.2188C263.047 62.5104 263.24 63.6094 263.625 64.5156C264.354 66.2448 265.688 67.1094 267.625 67.1094ZM260.344 52.3438H263.078V54.5625C263.641 53.8021 264.255 53.2135 264.922 52.7969C265.87 52.1719 266.984 51.8594 268.266 51.8594C270.161 51.8594 271.771 52.5885 273.094 54.0469C274.417 55.4948 275.078 57.5677 275.078 60.2656C275.078 63.9115 274.125 66.5156 272.219 68.0781C271.01 69.0677 269.604 69.5625 268 69.5625C266.74 69.5625 265.682 69.2865 264.828 68.7344C264.328 68.4219 263.771 67.8854 263.156 67.125V75.6719H260.344V52.3438ZM280.047 63.75C280.13 64.6875 280.365 65.4062 280.75 65.9062C281.458 66.8125 282.688 67.2656 284.438 67.2656C285.479 67.2656 286.396 67.0417 287.188 66.5938C287.979 66.1354 288.375 65.4323 288.375 64.4844C288.375 63.7656 288.057 63.2188 287.422 62.8438C287.016 62.6146 286.214 62.349 285.016 62.0469L282.781 61.4844C281.354 61.1302 280.302 60.7344 279.625 60.2969C278.417 59.5365 277.812 58.4844 277.812 57.1406C277.812 55.5573 278.38 54.276 279.516 53.2969C280.661 52.3177 282.198 51.8281 284.125 51.8281C286.646 51.8281 288.464 52.5677 289.578 54.0469C290.276 54.9844 290.615 55.9948 290.594 57.0781H287.938C287.885 56.4427 287.661 55.8646 287.266 55.3438C286.62 54.6042 285.5 54.2344 283.906 54.2344C282.844 54.2344 282.036 54.4375 281.484 54.8438C280.943 55.25 280.672 55.7865 280.672 56.4531C280.672 57.1823 281.031 57.7656 281.75 58.2031C282.167 58.4635 282.781 58.6927 283.594 58.8906L285.453 59.3438C287.474 59.8333 288.828 60.3073 289.516 60.7656C290.609 61.4844 291.156 62.6146 291.156 64.1562C291.156 65.6458 290.589 66.9323 289.453 68.0156C288.328 69.099 286.609 69.6406 284.297 69.6406C281.807 69.6406 280.042 69.0781 279 67.9531C277.969 66.8177 277.417 65.4167 277.344 63.75H280.047Z" fill="#969696"/>
<defs>
<radialGradient id="paint0_radial_491_112" cx="0" cy="0" r="1" gradientUnits="userSpaceOnUse" gradientTransform="translate(186 127) rotate(90.4658) scale(123.004 342.975)">
<stop stop-color="#3B7B40"/>
<stop offset="1"/>
</radialGradient>
</defs>
</svg>
