<svg width="361" height="60" viewBox="0 0 361 60" fill="none" xmlns="http://www.w3.org/2000/svg">
<path d="M20.5938 21.1875C23.5104 21.1875 25.8125 20.6042 27.5 19.4375C29.2083 18.2708 30.0625 16.1667 30.0625 13.125C30.0625 9.85417 28.875 7.625 26.5 6.4375C25.2292 5.8125 23.5312 5.5 21.4062 5.5H6.21875V21.1875H20.5938ZM0 0.15625H21.25C24.75 0.15625 27.6354 0.666667 29.9062 1.6875C34.2188 3.64583 36.375 7.26042 36.375 12.5312C36.375 15.2812 35.8021 17.5312 34.6562 19.2812C33.5312 21.0312 31.9479 22.4375 29.9062 23.5C31.6979 24.2292 33.0417 25.1875 33.9375 26.375C34.8542 27.5625 35.3646 29.4896 35.4688 32.1562L35.6875 38.3125C35.75 40.0625 35.8958 41.3646 36.125 42.2188C36.5 43.6771 37.1667 44.6146 38.125 45.0312V46.0625H30.5C30.2917 45.6667 30.125 45.1562 30 44.5312C29.875 43.9062 29.7708 42.6979 29.6875 40.9062L29.3125 33.25C29.1667 30.25 28.0521 28.2396 25.9688 27.2188C24.7812 26.6562 22.9167 26.375 20.375 26.375H6.21875V46.0625H0V0.15625ZM58.6875 11.8438C61.0625 11.8438 63.3646 12.4062 65.5938 13.5312C67.8229 14.6354 69.5208 16.0729 70.6875 17.8438C71.8125 19.5312 72.5625 21.5 72.9375 23.75C73.2708 25.2917 73.4375 27.75 73.4375 31.125H48.9062C49.0104 34.5208 49.8125 37.25 51.3125 39.3125C52.8125 41.3542 55.1354 42.375 58.2812 42.375C61.2188 42.375 63.5625 41.4062 65.3125 39.4688C66.3125 38.3438 67.0208 37.0417 67.4375 35.5625H72.9688C72.8229 36.7917 72.3333 38.1667 71.5 39.6875C70.6875 41.1875 69.7708 42.4167 68.75 43.375C67.0417 45.0417 64.9271 46.1667 62.4062 46.75C61.0521 47.0833 59.5208 47.25 57.8125 47.25C53.6458 47.25 50.1146 45.7396 47.2188 42.7188C44.3229 39.6771 42.875 35.4271 42.875 29.9688C42.875 24.5938 44.3333 20.2292 47.25 16.875C50.1667 13.5208 53.9792 11.8438 58.6875 11.8438ZM67.6562 26.6562C67.4271 24.2188 66.8958 22.2708 66.0625 20.8125C64.5208 18.1042 61.9479 16.75 58.3438 16.75C55.7604 16.75 53.5938 17.6875 51.8438 19.5625C50.0938 21.4167 49.1667 23.7812 49.0625 26.6562H67.6562ZM81.5 3.25H87.1875V12.5938H92.5312V17.1875H87.1875V39.0312C87.1875 40.1979 87.5833 40.9792 88.375 41.375C88.8125 41.6042 89.5417 41.7188 90.5625 41.7188C90.8333 41.7188 91.125 41.7188 91.4375 41.7188C91.75 41.6979 92.1146 41.6667 92.5312 41.625V46.0625C91.8854 46.25 91.2083 46.3854 90.5 46.4688C89.8125 46.5521 89.0625 46.5938 88.25 46.5938C85.625 46.5938 83.8438 45.9271 82.9062 44.5938C81.9688 43.2396 81.5 41.4896 81.5 39.3438V17.1875H76.9688V12.5938H81.5V3.25ZM102.5 37.1562C102.5 38.7812 103.094 40.0625 104.281 41C105.469 41.9375 106.875 42.4062 108.5 42.4062C110.479 42.4062 112.396 41.9479 114.25 41.0312C117.375 39.5104 118.938 37.0208 118.938 33.5625V29.0312C118.25 29.4688 117.365 29.8333 116.281 30.125C115.198 30.4167 114.135 30.625 113.094 30.75L109.688 31.1875C107.646 31.4583 106.115 31.8854 105.094 32.4688C103.365 33.4479 102.5 35.0104 102.5 37.1562ZM116.125 25.7812C117.417 25.6146 118.281 25.0729 118.719 24.1562C118.969 23.6562 119.094 22.9375 119.094 22C119.094 20.0833 118.406 18.6979 117.031 17.8438C115.677 16.9688 113.729 16.5312 111.188 16.5312C108.25 16.5312 106.167 17.3229 104.938 18.9062C104.25 19.7812 103.802 21.0833 103.594 22.8125H98.3438C98.4479 18.6875 99.7812 15.8229 102.344 14.2188C104.927 12.5938 107.917 11.7812 111.312 11.7812C115.25 11.7812 118.448 12.5312 120.906 14.0312C123.344 15.5312 124.562 17.8646 124.562 21.0312V40.3125C124.562 40.8958 124.677 41.3646 124.906 41.7188C125.156 42.0729 125.667 42.25 126.438 42.25C126.688 42.25 126.969 42.2396 127.281 42.2188C127.594 42.1771 127.927 42.125 128.281 42.0625V46.2188C127.406 46.4688 126.74 46.625 126.281 46.6875C125.823 46.75 125.198 46.7812 124.406 46.7812C122.469 46.7812 121.062 46.0938 120.188 44.7188C119.729 43.9896 119.406 42.9583 119.219 41.625C118.073 43.125 116.427 44.4271 114.281 45.5312C112.135 46.6354 109.771 47.1875 107.188 47.1875C104.083 47.1875 101.542 46.25 99.5625 44.375C97.6042 42.4792 96.625 40.1146 96.625 37.2812C96.625 34.1771 97.5938 31.7708 99.5312 30.0625C101.469 28.3542 104.01 27.3021 107.156 26.9062L116.125 25.7812ZM133.812 12.75H139.531V46.0625H133.812V12.75ZM133.812 0.15625H139.531V6.53125H133.812V0.15625ZM148.219 0.15625H153.844V46.0625H148.219V0.15625ZM202.219 21.1875C205.135 21.1875 207.438 20.6042 209.125 19.4375C210.833 18.2708 211.688 16.1667 211.688 13.125C211.688 9.85417 210.5 7.625 208.125 6.4375C206.854 5.8125 205.156 5.5 203.031 5.5H187.844V21.1875H202.219ZM181.625 0.15625H202.875C206.375 0.15625 209.26 0.666667 211.531 1.6875C215.844 3.64583 218 7.26042 218 12.5312C218 15.2812 217.427 17.5312 216.281 19.2812C215.156 21.0312 213.573 22.4375 211.531 23.5C213.323 24.2292 214.667 25.1875 215.562 26.375C216.479 27.5625 216.99 29.4896 217.094 32.1562L217.312 38.3125C217.375 40.0625 217.521 41.3646 217.75 42.2188C218.125 43.6771 218.792 44.6146 219.75 45.0312V46.0625H212.125C211.917 45.6667 211.75 45.1562 211.625 44.5312C211.5 43.9062 211.396 42.6979 211.312 40.9062L210.938 33.25C210.792 30.25 209.677 28.2396 207.594 27.2188C206.406 26.6562 204.542 26.375 202 26.375H187.844V46.0625H181.625V0.15625ZM240.312 11.8438C242.688 11.8438 244.99 12.4062 247.219 13.5312C249.448 14.6354 251.146 16.0729 252.312 17.8438C253.438 19.5312 254.188 21.5 254.562 23.75C254.896 25.2917 255.062 27.75 255.062 31.125H230.531C230.635 34.5208 231.438 37.25 232.938 39.3125C234.438 41.3542 236.76 42.375 239.906 42.375C242.844 42.375 245.188 41.4062 246.938 39.4688C247.938 38.3438 248.646 37.0417 249.062 35.5625H254.594C254.448 36.7917 253.958 38.1667 253.125 39.6875C252.312 41.1875 251.396 42.4167 250.375 43.375C248.667 45.0417 246.552 46.1667 244.031 46.75C242.677 47.0833 241.146 47.25 239.438 47.25C235.271 47.25 231.74 45.7396 228.844 42.7188C225.948 39.6771 224.5 35.4271 224.5 29.9688C224.5 24.5938 225.958 20.2292 228.875 16.875C231.792 13.5208 235.604 11.8438 240.312 11.8438ZM249.281 26.6562C249.052 24.2188 248.521 22.2708 247.688 20.8125C246.146 18.1042 243.573 16.75 239.969 16.75C237.385 16.75 235.219 17.6875 233.469 19.5625C231.719 21.4167 230.792 23.7812 230.688 26.6562H249.281ZM266.312 37.1562C266.312 38.7812 266.906 40.0625 268.094 41C269.281 41.9375 270.688 42.4062 272.312 42.4062C274.292 42.4062 276.208 41.9479 278.062 41.0312C281.188 39.5104 282.75 37.0208 282.75 33.5625V29.0312C282.062 29.4688 281.177 29.8333 280.094 30.125C279.01 30.4167 277.948 30.625 276.906 30.75L273.5 31.1875C271.458 31.4583 269.927 31.8854 268.906 32.4688C267.177 33.4479 266.312 35.0104 266.312 37.1562ZM279.938 25.7812C281.229 25.6146 282.094 25.0729 282.531 24.1562C282.781 23.6562 282.906 22.9375 282.906 22C282.906 20.0833 282.219 18.6979 280.844 17.8438C279.49 16.9688 277.542 16.5312 275 16.5312C272.062 16.5312 269.979 17.3229 268.75 18.9062C268.062 19.7812 267.615 21.0833 267.406 22.8125H262.156C262.26 18.6875 263.594 15.8229 266.156 14.2188C268.74 12.5938 271.729 11.7812 275.125 11.7812C279.062 11.7812 282.26 12.5312 284.719 14.0312C287.156 15.5312 288.375 17.8646 288.375 21.0312V40.3125C288.375 40.8958 288.49 41.3646 288.719 41.7188C288.969 42.0729 289.479 42.25 290.25 42.25C290.5 42.25 290.781 42.2396 291.094 42.2188C291.406 42.1771 291.74 42.125 292.094 42.0625V46.2188C291.219 46.4688 290.552 46.625 290.094 46.6875C289.635 46.75 289.01 46.7812 288.219 46.7812C286.281 46.7812 284.875 46.0938 284 44.7188C283.542 43.9896 283.219 42.9583 283.031 41.625C281.885 43.125 280.24 44.4271 278.094 45.5312C275.948 46.6354 273.583 47.1875 271 47.1875C267.896 47.1875 265.354 46.25 263.375 44.375C261.417 42.4792 260.438 40.1146 260.438 37.2812C260.438 34.1771 261.406 31.7708 263.344 30.0625C265.281 28.3542 267.823 27.3021 270.969 26.9062L279.938 25.7812ZM301.188 29.7188C301.188 33.3021 301.948 36.3021 303.469 38.7188C304.99 41.1354 307.427 42.3438 310.781 42.3438C313.385 42.3438 315.521 41.2292 317.188 39C318.875 36.75 319.719 33.5312 319.719 29.3438C319.719 25.1146 318.854 21.9896 317.125 19.9688C315.396 17.9271 313.26 16.9062 310.719 16.9062C307.885 16.9062 305.583 17.9896 303.812 20.1562C302.062 22.3229 301.188 25.5104 301.188 29.7188ZM309.656 12C312.219 12 314.365 12.5417 316.094 13.625C317.094 14.25 318.229 15.3438 319.5 16.9062V0H324.906V46.0625H319.844V41.4062C318.531 43.4688 316.979 44.9583 315.188 45.875C313.396 46.7917 311.344 47.25 309.031 47.25C305.302 47.25 302.073 45.6875 299.344 42.5625C296.615 39.4167 295.25 35.2396 295.25 30.0312C295.25 25.1562 296.49 20.9375 298.969 17.375C301.469 13.7917 305.031 12 309.656 12ZM354.156 12.5938H360.375C359.583 14.7396 357.823 19.6354 355.094 27.2812C353.052 33.0312 351.344 37.7188 349.969 41.3438C346.719 49.8854 344.427 55.0938 343.094 56.9688C341.76 58.8438 339.469 59.7812 336.219 59.7812C335.427 59.7812 334.812 59.75 334.375 59.6875C333.958 59.625 333.438 59.5104 332.812 59.3438V54.2188C333.792 54.4896 334.5 54.6562 334.938 54.7188C335.375 54.7812 335.76 54.8125 336.094 54.8125C337.135 54.8125 337.896 54.6354 338.375 54.2812C338.875 53.9479 339.292 53.5312 339.625 53.0312C339.729 52.8646 340.104 52.0104 340.75 50.4688C341.396 48.9271 341.865 47.7812 342.156 47.0312L329.781 12.5938H336.156L345.125 39.8438L354.156 12.5938Z" fill="url(#paint0_linear_502_117)"/>
<defs>
<linearGradient id="paint0_linear_502_117" x1="181.891" y1="70.0625" x2="183.032" y2="12.5666" gradientUnits="userSpaceOnUse">
<stop stop-color="#B4B4B4"/>
<stop offset="1" stop-color="#323232"/>
</linearGradient>
</defs>
</svg>
